<?xml version="1.0" encoding="UTF-8"?>
<svg version="1.1" viewBox="0 0 1024 768" xml:space="preserve" xmlns="http://www.w3.org/2000/svg">
<defs>
<filter id="d" x="-50%" y="-50%" width="200%" height="200%">
	<feFlood flood-color="#ffffff" result="flood-white"/>
    <feFlood flood-color="#fd8cc8" result="flood-accent">
		<animate attributeName="flood-color" dur="6s"
                 keyTimes="0;                        0.25;                        0.5;                        0.75;                        1"
                 repeatCount="indefinite"
                 values="#fecfe8;                      #feb9dd;                      #fda2d2;                      #fd8cc8; #fecfe8"/>
	</feFlood>

    <feComposite in="flood-accent" in2="SourceAlpha" operator="out" result="comp"/>
    <feMorphology in="comp" operator="dilate" radius="4" result="comp"/>
    <feGaussianBlur in="comp" result="comp" stdDeviation="5"/>
    <feComposite in="comp" in2="SourceAlpha" operator="in" result="comp"/>

    <feComposite in="flood-white" in2="SourceAlpha" operator="in" result="comp2"/>
    <feMorphology in="comp2" radius="3" result="comp2"/>
    <feGaussianBlur in="comp2" result="comp2" stdDeviation="4">
		<animate attributeName="stdDeviation" calcMode="spline" dur="3s" keySplines=".73 .18 .24 .87; .73 .18 .24 .87;"
                 repeatCount="indefinite" values="4;6;4"/>
	</feGaussianBlur>
    <feBlend in="comp" in2="comp2" mode="screen" result="output"/>
</filter>

    <filter id="c" x="-50%" y="-50%" width="200%" height="200%">
  <feGaussianBlur in="SourceGraphic" stdDeviation="12"/>
</filter>
    <filter id="b" x="-100%" y="-100%" width="300%" height="300%">
  <feGaussianBlur in="SourceGraphic" stdDeviation="50"/>
</filter>
    <filter id="a" x="-50%" y="-50%" width="200%" height="200%">
  <feGaussianBlur in="SourceGraphic" stdDeviation="4"/>
</filter>
</defs>
    <path d="m298.32 329.69c-9.59 0-16.92 2.9-21.99 8.71-5.07 5.72-7.61 12.12-7.61 19.22v7.33h-4.56c-5.44 0-8.16 3.78-8.16 11.34 0 2.49 0.18 4.57 0.55 6.23 0.37 1.56 0.97 2.76 1.8 3.59 0.83 0.74 1.61 1.25 2.35 1.52 0.83 0.19 1.85 0.33 3.04 0.42h4.98v36.65c0 2.12 0.05 3.73 0.14 4.84 0.19 1.11 0.65 2.35 1.38 3.73 0.74 1.29 1.94 2.26 3.6 2.91 1.75 0.55 4.06 0.83 6.92 0.83 2.85 0 5.16-0.28 6.91-0.83 1.84-0.56 3.09-1.48 3.73-2.77 0.74-1.38 1.2-2.63 1.39-3.73 0.18-1.11 0.27-2.68 0.27-4.71v-37.06l8.86 0.55c2.02 0 3.59-0.09 4.7-0.27 1.2-0.19 2.44-0.65 3.73-1.39 1.29-0.73 2.21-1.93 2.77-3.59 0.64-1.75 0.97-4.01 0.97-6.78 0-2.95-0.28-5.3-0.83-7.05-0.56-1.75-1.53-2.95-2.91-3.6-1.29-0.73-2.49-1.2-3.59-1.38-1.02-0.18-2.59-0.28-4.71-0.28l-8.99 0.83v-7.6c0-2.31 1.71-3.46 5.12-3.46h3.87c0.92-0.09 1.99-0.32 3.18-0.69 1.3-0.46 2.26-1.06 2.91-1.8 0.64-0.83 1.2-2.03 1.66-3.6 0.46-1.65 0.69-3.64 0.69-5.94 0-2.95-0.28-5.3-0.83-7.06-0.55-1.75-1.52-2.95-2.9-3.59-1.39-0.74-2.63-1.15-3.74-1.25-1.01-0.18-2.58-0.27-4.7-0.27zm35.43 0c-2.95 0-5.3 0.27-7.05 0.83-1.75 0.55-3 1.52-3.73 2.9-0.65 1.38-1.06 2.63-1.25 3.73-0.09 1.02-0.14 2.59-0.14 4.71v65.83c0 5.35 0.33 9.72 0.97 13.14 0.65 3.41 1.57 6.22 2.77 8.43 1.29 2.21 3.18 3.87 5.67 4.98 2.58 1.01 5.34 1.71 8.3 2.07 2.95 0.37 6.86 0.56 11.75 0.56 1.29 0 2.26-0.05 2.91-0.14 0.73-0.18 1.56-0.6 2.49-1.25 1.01-0.73 1.7-1.98 2.07-3.73 0.46-1.75 0.69-4.06 0.69-6.91 0-2.68-0.23-4.8-0.69-6.37-0.37-1.65-1.06-2.81-2.07-3.45-0.93-0.65-1.71-1.02-2.36-1.11-0.64-0.18-1.61-0.28-2.9-0.28-2.49 0-4.01-0.41-4.56-1.24-0.56-0.92-0.83-3.04-0.83-6.36v-64.03c0-2.12-0.1-3.74-0.28-4.85-0.09-1.1-0.51-2.3-1.25-3.59-0.73-1.38-1.98-2.35-3.73-2.91-1.66-0.64-3.92-0.96-6.78-0.96zm406.04 32.91c-20.01 0-30.01 7.29-30.01 21.85 0 4.89 0.87 9.13 2.62 12.73 1.76 3.5 3.97 6.08 6.64 7.74 2.68 1.66 5.53 3.09 8.58 4.29 3.13 1.11 6.04 1.84 8.71 2.21s4.89 0.88 6.64 1.52c1.75 0.65 2.63 1.43 2.63 2.35 0 2.22-2.82 3.32-8.44 3.32-3.13 0-6.96-1.29-11.48-3.87-3.23-1.94-6.04-2.9-8.44-2.9-2.12 0-3.68 0.78-4.7 2.35-3.5 4.88-5.25 8.66-5.25 11.34 0 2.12 0.87 3.73 2.62 4.84 8.21 5.16 16.97 7.74 26.28 7.74 4.33 0 8.16-0.32 11.48-0.97 3.41-0.64 6.73-1.75 9.96-3.31 3.32-1.66 5.85-4.15 7.6-7.47 1.85-3.41 2.77-7.61 2.77-12.59 0-4.61-0.92-8.48-2.77-11.61-1.75-3.23-4.01-5.49-6.77-6.78-2.68-1.38-5.58-2.54-8.72-3.46-3.13-0.92-6.08-1.52-8.85-1.8-2.67-0.37-4.93-0.96-6.77-1.79-1.75-0.93-2.63-2.12-2.63-3.6 0-2.03 2.72-3.04 8.16-3.04 3.5 0 7.24 0.92 11.2 2.76 2.03 0.93 3.6 1.39 4.7 1.39 2.12 0 4.24-1.66 6.36-4.98 1.94-3.14 2.91-5.63 2.91-7.47 0-2.58-1.61-4.61-4.84-6.09-6.92-3.13-13.65-4.7-20.19-4.7zm-337.63 0.31c-0.65 0.01-1.49 0.02-1.85 0.03s-0.93 0.03-1.25 0.04c-0.32 0.02-0.92 0.05-1.32 0.08-0.41 0.03-0.93 0.06-1.17 0.08-0.23 0.02-0.7 0.07-1.04 0.1-0.33 0.04-0.91 0.1-1.29 0.15-0.37 0.05-0.93 0.12-1.25 0.17-0.31 0.05-0.83 0.13-1.14 0.18-0.32 0.06-0.85 0.16-1.19 0.22-0.34 0.07-0.84 0.18-1.11 0.24-0.26 0.06-0.72 0.17-1.02 0.24-0.29 0.07-0.72 0.19-0.94 0.25-0.23 0.06-0.7 0.2-1.05 0.3-0.35 0.11-0.83 0.26-1.06 0.34-0.24 0.08-0.64 0.22-0.89 0.31s-0.69 0.26-0.99 0.38c-0.29 0.12-0.76 0.31-1.03 0.43s-0.72 0.32-1 0.46-0.75 0.37-1.03 0.51c-0.28 0.15-0.73 0.4-1 0.55-0.27 0.16-0.7 0.41-0.95 0.57-0.25 0.15-0.64 0.41-0.86 0.56-0.23 0.15-0.61 0.42-0.85 0.59-0.24 0.18-0.57 0.43-0.74 0.56s-0.43 0.34-0.59 0.47c-0.15 0.13-0.44 0.38-0.65 0.56-0.2 0.17-0.56 0.51-0.81 0.75-0.24 0.23-0.6 0.59-0.79 0.79-0.2 0.2-0.49 0.52-0.65 0.7s-0.44 0.5-0.61 0.71c-0.18 0.21-0.43 0.52-0.57 0.7-0.13 0.17-0.34 0.44-0.45 0.6-0.12 0.15-0.34 0.47-0.5 0.69-0.16 0.23-0.42 0.63-0.58 0.88s-0.4 0.64-0.53 0.87-0.35 0.6-0.48 0.84c-0.13 0.23-0.35 0.66-0.49 0.94s-0.35 0.73-0.47 0.98c-0.11 0.26-0.31 0.71-0.44 1.01-0.12 0.29-0.33 0.8-0.45 1.12-0.12 0.33-0.31 0.87-0.43 1.22-0.12 0.34-0.29 0.88-0.38 1.19s-0.21 0.72-0.27 0.91c-0.05 0.2-0.16 0.62-0.24 0.95-0.08 0.32-0.19 0.75-0.23 0.96-0.05 0.21-0.14 0.63-0.2 0.92-0.06 0.3-0.15 0.79-0.21 1.09-0.05 0.31-0.14 0.8-0.18 1.11-0.05 0.3-0.12 0.8-0.16 1.1-0.05 0.3-0.11 0.79-0.14 1.09-0.03 0.29-0.09 0.84-0.12 1.21s-0.08 0.91-0.1 1.19-0.05 0.83-0.07 1.22-0.05 1.06-0.06 1.49c-0.02 0.42-0.03 1.37-0.03 2.11 0 0.75 0.01 1.68 0.03 2.09 0.01 0.4 0.03 0.98 0.04 1.27 0.02 0.3 0.05 0.86 0.08 1.25 0.02 0.39 0.08 1.01 0.11 1.39 0.03 0.37 0.09 0.91 0.12 1.21 0.04 0.29 0.09 0.75 0.12 1 0.04 0.26 0.1 0.72 0.15 1.03s0.14 0.84 0.2 1.18c0.06 0.33 0.15 0.82 0.2 1.09 0.06 0.26 0.14 0.68 0.2 0.93s0.18 0.75 0.27 1.13c0.09 0.37 0.23 0.89 0.31 1.15 0.07 0.26 0.19 0.67 0.27 0.92 0.07 0.24 0.22 0.68 0.32 0.98 0.1 0.29 0.27 0.78 0.39 1.08 0.11 0.29 0.31 0.8 0.44 1.12 0.14 0.33 0.34 0.8 0.46 1.05 0.12 0.26 0.33 0.69 0.46 0.96 0.14 0.27 0.35 0.68 0.48 0.91 0.12 0.23 0.32 0.59 0.44 0.79 0.11 0.2 0.31 0.53 0.44 0.74s0.37 0.57 0.53 0.82c0.17 0.24 0.45 0.64 0.63 0.89s0.51 0.68 0.73 0.96c0.22 0.27 0.51 0.62 0.64 0.77s0.39 0.44 0.58 0.65 0.62 0.64 0.94 0.97c0.33 0.32 0.75 0.72 0.93 0.88s0.46 0.4 0.62 0.54c0.17 0.13 0.41 0.33 0.54 0.44 0.14 0.11 0.42 0.33 0.64 0.49s0.56 0.42 0.77 0.56c0.21 0.15 0.58 0.4 0.82 0.55 0.25 0.16 0.62 0.39 0.82 0.52 0.21 0.12 0.6 0.35 0.86 0.49 0.26 0.15 0.65 0.35 0.85 0.46 0.2 0.1 0.59 0.29 0.85 0.42 0.27 0.13 0.64 0.3 0.81 0.38 0.18 0.08 0.43 0.19 0.57 0.25s0.42 0.17 0.63 0.26c0.2 0.08 0.61 0.23 0.9 0.34s0.78 0.28 1.1 0.39c0.32 0.1 0.8 0.25 1.07 0.34 0.26 0.08 0.68 0.2 0.93 0.27 0.24 0.06 0.64 0.17 0.88 0.23s0.66 0.16 0.92 0.22 0.72 0.16 1.01 0.22c0.3 0.06 0.78 0.15 1.08 0.21 0.3 0.05 0.68 0.12 0.85 0.14 0.17 0.03 0.45 0.08 0.62 0.1 0.18 0.03 0.61 0.09 0.97 0.14 0.36 0.04 0.8 0.1 0.98 0.12s0.55 0.06 0.81 0.09c0.26 0.02 0.75 0.07 1.09 0.1 0.33 0.02 0.88 0.06 1.2 0.08s0.81 0.05 1.09 0.06c0.28 0.02 0.98 0.04 1.57 0.05 0.65 0.02 1.59 0.03 2.41 0.02 0.74-0.01 1.62-0.03 1.96-0.04s0.83-0.04 1.09-0.05c0.26-0.02 0.79-0.05 1.18-0.08 0.38-0.02 0.99-0.07 1.36-0.11 0.36-0.03 0.9-0.09 1.2-0.12 0.29-0.03 0.78-0.09 1.07-0.13 0.3-0.04 0.8-0.12 1.11-0.16 0.31-0.05 0.89-0.15 1.29-0.22 0.41-0.08 1-0.19 1.32-0.26 0.31-0.07 0.78-0.17 1.04-0.23 0.25-0.06 0.69-0.17 0.98-0.25 0.28-0.07 0.75-0.2 1.05-0.29s0.73-0.22 0.95-0.29c0.23-0.08 0.62-0.2 0.86-0.29 0.24-0.08 0.68-0.24 0.97-0.34 0.28-0.11 0.71-0.28 0.96-0.38 0.24-0.1 0.66-0.28 0.92-0.4 0.27-0.11 0.84-0.39 1.28-0.61s0.98-0.5 1.2-0.62 0.59-0.33 0.82-0.47 0.6-0.37 0.83-0.52c0.22-0.14 0.57-0.38 0.78-0.52s0.57-0.4 0.8-0.58c0.24-0.17 0.62-0.47 0.85-0.66 0.24-0.18 0.61-0.5 0.83-0.69 0.23-0.2 0.61-0.55 0.84-0.77 0.24-0.23 0.62-0.6 0.84-0.84 0.23-0.23 0.52-0.54 0.65-0.69s0.4-0.47 0.6-0.7c0.2-0.24 0.47-0.57 0.61-0.75 0.13-0.18 0.38-0.5 0.54-0.72s0.43-0.62 0.61-0.88c0.17-0.27 0.42-0.65 0.54-0.85 0.13-0.2 0.36-0.58 0.51-0.84 0.15-0.27 0.39-0.7 0.53-0.97s0.37-0.73 0.5-1.01c0.14-0.29 0.3-0.63 0.36-0.76s0.17-0.38 0.24-0.56c0.08-0.17 0.22-0.52 0.31-0.76 0.1-0.24 0.21-0.53 0.25-0.63 0.04-0.11 0.16-0.44 0.27-0.74 0.1-0.3 0.27-0.79 0.36-1.09 0.1-0.3 0.24-0.77 0.31-1.03 0.08-0.26 0.22-0.8 0.32-1.19s0.23-0.94 0.29-1.22c0.07-0.28 0.17-0.79 0.24-1.12 0.06-0.33 0.16-0.86 0.21-1.18 0.06-0.33 0.13-0.78 0.17-1 0.03-0.22 0.1-0.71 0.14-1.08 0.05-0.37 0.12-0.93 0.15-1.24 0.03-0.32 0.08-0.85 0.11-1.17s0.07-0.85 0.09-1.16c0.02-0.32 0.04-0.8 0.06-1.08 0.01-0.28 0.03-0.84 0.05-1.26 0.01-0.42 0.02-1.36 0.02-2.1 0-0.73-0.01-1.67-0.02-2.09-0.02-0.42-0.04-0.99-0.05-1.28-0.02-0.28-0.05-0.76-0.07-1.07s-0.05-0.83-0.08-1.15c-0.03-0.33-0.08-0.85-0.11-1.17s-0.1-0.88-0.15-1.24c-0.04-0.37-0.11-0.86-0.15-1.08-0.03-0.23-0.1-0.67-0.16-1-0.05-0.32-0.16-0.91-0.24-1.31s-0.2-0.96-0.27-1.26c-0.06-0.3-0.19-0.8-0.27-1.11s-0.21-0.78-0.28-1.04c-0.08-0.26-0.21-0.7-0.3-0.99-0.09-0.28-0.23-0.73-0.33-1-0.09-0.27-0.25-0.69-0.34-0.94s-0.26-0.67-0.36-0.92c-0.11-0.26-0.27-0.63-0.36-0.83-0.08-0.2-0.25-0.56-0.37-0.81-0.11-0.24-0.3-0.63-0.42-0.85-0.11-0.22-0.32-0.6-0.45-0.85-0.14-0.24-0.34-0.58-0.45-0.77-0.1-0.18-0.32-0.53-0.47-0.77-0.16-0.24-0.4-0.61-0.55-0.83s-0.4-0.56-0.56-0.77c-0.15-0.21-0.44-0.59-0.65-0.85-0.2-0.25-0.54-0.65-0.74-0.88s-0.54-0.6-0.76-0.83-0.59-0.61-0.83-0.84-0.56-0.53-0.72-0.67c-0.15-0.14-0.47-0.41-0.7-0.6s-0.56-0.46-0.75-0.6c-0.18-0.15-0.5-0.39-0.71-0.54-0.2-0.15-0.63-0.45-0.95-0.66s-0.81-0.52-1.09-0.69-0.66-0.39-0.83-0.48c-0.17-0.1-0.52-0.29-0.78-0.42-0.25-0.14-0.68-0.35-0.97-0.49-0.28-0.13-0.71-0.33-0.95-0.44-0.25-0.11-0.74-0.31-1.09-0.45-0.36-0.14-0.93-0.36-1.27-0.48-0.34-0.13-0.9-0.31-1.23-0.42-0.34-0.11-0.85-0.26-1.14-0.34-0.28-0.08-0.75-0.21-1.04-0.28-0.29-0.08-0.77-0.2-1.06-0.26-0.3-0.07-0.89-0.2-1.33-0.28-0.43-0.09-1.08-0.21-1.44-0.27-0.37-0.06-0.89-0.14-1.16-0.18-0.28-0.04-0.78-0.11-1.11-0.15s-0.87-0.1-1.2-0.14c-0.33-0.03-0.87-0.08-1.2-0.11-0.33-0.02-0.86-0.06-1.19-0.09-0.32-0.02-0.83-0.04-1.12-0.06-0.3-0.01-0.93-0.03-1.41-0.05-0.48-0.01-1.41-0.02-2.06-0.02zm56.81 0.24c-2.02 0-4.51 0.6-7.46 1.8-5.26 2.12-7.89 5.03-7.89 8.72 0 0.83 0.46 2.62 1.39 5.39l19.77 48.54 1.11 2.35c0.64 1.66 1.94 3.32 3.87 4.98 1.94 1.57 4.2 2.35 6.78 2.35 1.66 0 3.18-0.32 4.56-0.97 1.48-0.73 2.63-1.52 3.46-2.35 0.83-0.82 1.57-1.79 2.21-2.9 0.65-1.11 1.02-1.84 1.11-2.21 0.18-0.46 0.32-0.83 0.41-1.11 0.92-2.21 2.26-5.81 4.01-10.79 1.85-5.07 3.23-8.71 4.15-10.92 0.28 0.73 1.57 4.19 3.88 10.37 2.3 6.09 3.73 9.82 4.28 11.2l1.11 2.35c0.64 1.66 1.94 3.32 3.87 4.98 2.03 1.57 4.33 2.35 6.92 2.35 1.66 0 3.18-0.32 4.56-0.97 1.38-0.73 2.44-1.52 3.18-2.35 0.83-0.82 1.57-1.79 2.21-2.9 0.65-1.11 1.02-1.84 1.11-2.21 0.18-0.46 0.32-0.83 0.41-1.11l15.22-37.06c1.01-2.59 2.58-6.41 4.7-11.48 0.83-1.85 1.24-3.55 1.24-5.12 0-3.78-2.95-6.96-8.85-9.54-1.93-0.92-3.78-1.39-5.53-1.39-4.42 0-7.74 2.96-9.96 8.86l-8.43 22.95c-0.83-1.84-3.55-9.22-8.16-22.12l-1.11-2.36c-0.74-1.47-2.12-2.95-4.15-4.42-1.93-1.48-4.19-2.21-6.77-2.21-1.48 0-2.91 0.32-4.29 0.96-1.38 0.65-2.49 1.39-3.32 2.22-0.74 0.73-1.47 1.61-2.21 2.63-0.65 1.01-1.06 1.7-1.25 2.07-0.18 0.37-0.32 0.69-0.41 0.97l-8.16 22.4c-0.37-1.01-2.03-5.39-4.98-13.14-2.86-7.83-4.33-11.89-4.43-12.17-0.55-1.29-1.06-2.3-1.52-3.04-0.46-0.83-1.29-1.61-2.49-2.35-1.1-0.83-2.49-1.25-4.15-1.25zm130.34 0c-4.05 0-8.25 0.79-12.58 2.36-4.24 1.56-8.25 3.82-12.03 6.77-3.69 2.95-6.74 6.87-9.13 11.76-2.4 4.79-3.6 10.14-3.6 16.04 0 5.99 1.2 11.48 3.6 16.46 2.39 4.89 5.48 8.8 9.26 11.75s7.79 5.26 12.04 6.92c4.33 1.57 8.57 2.35 12.72 2.35 7.65 0 14.11-1.84 19.36-5.53 5.07-3.05 7.61-6.32 7.61-9.82 0-2.12-1.06-4.52-3.18-7.19-3.97-4.89-7.33-7.33-10.1-7.33-1.57 0-3.87 0.97-6.91 2.9l-0.83 0.55c-0.47 0.37-1.29 0.74-2.49 1.11s-2.54 0.55-4.01 0.55c-2.96 0-5.72-1.06-8.3-3.18-2.58-2.21-3.87-5.3-3.87-9.26 0-3.87 1.33-6.92 4.01-9.13 2.67-2.21 5.48-3.32 8.43-3.32 3.23 0 5.67 0.78 7.33 2.35 3.23 2.03 5.72 3.04 7.47 3.04 3.04 0 6.22-2.53 9.54-7.6 1.94-2.95 2.91-5.53 2.91-7.75 0-1.38-0.42-2.62-1.25-3.73-0.74-1.2-1.57-2.12-2.49-2.77-0.83-0.64-2.07-1.52-3.73-2.62l-2.21-1.39c-1.57-0.92-4.01-1.84-7.33-2.76-3.32-1.02-6.73-1.53-10.24-1.53zm48.49 0.7c-2.95 0-5.31 0.27-7.06 0.83-1.75 0.55-2.99 1.52-3.73 2.9-0.65 1.38-1.06 2.58-1.25 3.6-0.09 1.01-0.13 2.62-0.13 4.84v24.2c0 10.14 3.04 18.76 9.12 25.86 6.18 7.01 13.93 10.51 23.24 10.51 1.93 0 3.82-0.32 5.67-0.97 1.84-0.64 3.36-1.33 4.56-2.07 1.2-0.83 2.31-1.75 3.32-2.77 1.11-1.01 1.8-1.7 2.08-2.07 0.36-0.37 0.64-0.69 0.83-0.97 0 1.2 0.04 2.17 0.13 2.9 0.19 0.74 0.6 1.66 1.25 2.77 0.64 1.11 1.84 1.94 3.59 2.49 1.76 0.55 4.02 0.83 6.78 0.83 2.86 0 5.16-0.28 6.92-0.83 1.75-0.55 2.99-1.47 3.73-2.77 0.74-1.29 1.15-2.44 1.24-3.45 0.19-1.11 0.28-2.68 0.28-4.71v-48.95c0-2.12-0.09-3.69-0.28-4.71-0.09-1.1-0.5-2.35-1.24-3.73-0.65-1.38-1.84-2.35-3.6-2.9-1.75-0.56-4.05-0.83-6.91-0.83-2.95 0-5.3 0.27-7.05 0.83-1.76 0.55-3 1.52-3.74 2.9-0.64 1.29-1.06 2.49-1.24 3.6-0.1 1.01-0.14 2.58-0.14 4.7v24.48c0 3.59-1.15 6.5-3.46 8.71-2.21 2.21-5.12 3.32-8.71 3.32-3.69 0-6.64-1.06-8.85-3.18-2.12-2.12-3.18-5.07-3.18-8.85v-24.2c0-1.76-0.05-3.05-0.14-3.88 0-0.92-0.23-1.98-0.69-3.18-0.37-1.29-0.97-2.26-1.8-2.9-0.83-0.65-2.03-1.2-3.6-1.66-1.56-0.46-3.55-0.69-5.94-0.69zm-235.69 6.54c0.04 0 0.61 0 1.29 0.02 0.67 0.01 1.54 0.04 1.93 0.06s1 0.06 1.34 0.08c0.35 0.03 0.9 0.08 1.23 0.11 0.33 0.04 0.82 0.09 1.09 0.13 0.26 0.03 0.74 0.1 1.05 0.15 0.31 0.04 0.77 0.12 1.03 0.17 0.26 0.04 0.71 0.13 1 0.19 0.3 0.06 0.83 0.18 1.18 0.27s0.82 0.21 1.04 0.27 0.6 0.17 0.84 0.25c0.24 0.07 0.64 0.2 0.88 0.29 0.25 0.08 0.62 0.22 0.84 0.31 0.21 0.08 0.63 0.25 0.92 0.37s0.79 0.36 1.12 0.52 0.77 0.39 0.97 0.5 0.5 0.29 0.67 0.39 0.53 0.33 0.8 0.51c0.28 0.18 0.7 0.47 0.94 0.65s0.58 0.46 0.76 0.61c0.19 0.15 0.49 0.41 0.68 0.59 0.19 0.17 0.52 0.49 0.74 0.72 0.23 0.23 0.52 0.54 0.66 0.7 0.13 0.15 0.35 0.41 0.48 0.57s0.35 0.44 0.49 0.62c0.14 0.19 0.3 0.41 0.36 0.5 0.06 0.08 0.22 0.32 0.36 0.52 0.13 0.2 0.34 0.54 0.46 0.74s0.31 0.52 0.42 0.71c0.1 0.19 0.3 0.57 0.44 0.84 0.14 0.28 0.29 0.59 0.34 0.7s0.15 0.34 0.22 0.51c0.08 0.16 0.23 0.52 0.33 0.79 0.11 0.27 0.29 0.73 0.39 1.03 0.11 0.3 0.26 0.75 0.34 1.02 0.08 0.26 0.22 0.72 0.3 1.01 0.08 0.3 0.21 0.78 0.28 1.08s0.18 0.78 0.25 1.08c0.06 0.3 0.16 0.8 0.22 1.13 0.06 0.32 0.14 0.84 0.19 1.16s0.12 0.83 0.16 1.15 0.1 0.85 0.14 1.18c0.03 0.33 0.08 0.88 0.1 1.23 0.03 0.35 0.07 0.94 0.09 1.31 0.02 0.38 0.05 1.02 0.06 1.44 0.02 0.42 0.03 1.34 0.03 2.04 0 0.71-0.01 1.63-0.03 2.05-0.01 0.42-0.04 1.06-0.06 1.43s-0.05 0.9-0.07 1.17-0.07 0.78-0.1 1.13c-0.04 0.36-0.1 0.92-0.14 1.24s-0.11 0.85-0.16 1.18c-0.04 0.32-0.13 0.83-0.18 1.14-0.05 0.3-0.15 0.79-0.21 1.09-0.06 0.29-0.16 0.74-0.22 1s-0.17 0.7-0.24 0.98c-0.08 0.28-0.21 0.74-0.29 1.01s-0.22 0.7-0.3 0.96c-0.09 0.27-0.24 0.7-0.35 0.97-0.1 0.26-0.25 0.65-0.33 0.85-0.09 0.21-0.23 0.54-0.32 0.73-0.09 0.2-0.28 0.61-0.43 0.91s-0.35 0.69-0.45 0.86c-0.09 0.16-0.27 0.46-0.38 0.66-0.12 0.19-0.36 0.58-0.55 0.85-0.18 0.28-0.47 0.7-0.64 0.92-0.17 0.23-0.41 0.54-0.53 0.68-0.11 0.14-0.32 0.39-0.46 0.55-0.15 0.16-0.44 0.47-0.66 0.69-0.21 0.23-0.55 0.56-0.75 0.74-0.21 0.18-0.5 0.44-0.65 0.57-0.16 0.13-0.43 0.34-0.6 0.48-0.18 0.13-0.51 0.37-0.74 0.53s-0.6 0.41-0.84 0.56c-0.23 0.14-0.61 0.37-0.85 0.51-0.24 0.13-0.65 0.35-0.92 0.49-0.26 0.13-0.65 0.31-0.85 0.41l-0.77 0.33c-0.21 0.09-0.6 0.24-0.87 0.34-0.26 0.1-0.7 0.26-0.97 0.35s-0.74 0.23-1.03 0.32c-0.3 0.09-0.76 0.21-1.02 0.28s-0.67 0.17-0.92 0.22c-0.24 0.06-0.66 0.15-0.93 0.2s-0.71 0.14-0.98 0.18c-0.27 0.05-0.72 0.12-1 0.16s-0.73 0.1-1 0.13c-0.28 0.04-0.78 0.09-1.12 0.13-0.35 0.03-0.86 0.07-1.14 0.09-0.29 0.02-0.71 0.05-0.96 0.07-0.24 0.01-0.74 0.03-1.1 0.05-0.36 0.01-1.32 0.02-2.12 0.02s-1.76-0.01-2.12-0.03c-0.36-0.01-0.94-0.04-1.28-0.06-0.35-0.02-0.89-0.06-1.21-0.08-0.31-0.03-0.78-0.07-1.04-0.1-0.25-0.03-0.68-0.08-0.95-0.11-0.27-0.04-0.74-0.1-1.04-0.15-0.31-0.05-0.74-0.12-0.97-0.16s-0.63-0.12-0.89-0.17c-0.27-0.05-0.7-0.15-0.96-0.21s-0.7-0.17-0.98-0.24c-0.28-0.08-0.68-0.19-0.91-0.26-0.22-0.06-0.65-0.2-0.94-0.3-0.3-0.1-0.71-0.24-0.91-0.32-0.21-0.08-0.58-0.22-0.84-0.33-0.25-0.1-0.62-0.27-0.82-0.36s-0.6-0.28-0.88-0.43c-0.29-0.14-0.71-0.37-0.94-0.5-0.22-0.13-0.54-0.31-0.69-0.41-0.16-0.1-0.46-0.29-0.67-0.43-0.2-0.14-0.56-0.4-0.79-0.57s-0.52-0.39-0.65-0.5c-0.13-0.1-0.39-0.33-0.59-0.5-0.19-0.17-0.58-0.53-0.86-0.81-0.27-0.28-0.61-0.63-0.75-0.78-0.13-0.16-0.34-0.4-0.46-0.54s-0.38-0.48-0.58-0.75-0.51-0.71-0.69-0.98-0.41-0.64-0.52-0.82-0.28-0.48-0.38-0.66-0.3-0.56-0.43-0.83c-0.14-0.27-0.33-0.66-0.42-0.87-0.09-0.2-0.24-0.55-0.33-0.76s-0.24-0.6-0.35-0.88c-0.1-0.27-0.27-0.74-0.37-1.05-0.1-0.3-0.26-0.83-0.36-1.17-0.1-0.35-0.23-0.83-0.29-1.07s-0.16-0.66-0.22-0.93-0.16-0.71-0.21-0.99c-0.06-0.27-0.15-0.79-0.21-1.16-0.06-0.36-0.15-0.93-0.2-1.27-0.04-0.34-0.11-0.87-0.14-1.17-0.04-0.31-0.09-0.8-0.11-1.11-0.03-0.3-0.07-0.8-0.09-1.1s-0.05-0.75-0.06-1c-0.02-0.25-0.04-0.85-0.05-1.33-0.02-0.54-0.03-1.49-0.02-2.54 0.01-0.93 0.03-1.91 0.04-2.2 0.02-0.28 0.04-0.79 0.06-1.14 0.02-0.34 0.07-0.93 0.1-1.32 0.04-0.38 0.09-0.95 0.13-1.25 0.03-0.3 0.08-0.75 0.12-1 0.03-0.25 0.1-0.7 0.15-1.01 0.04-0.3 0.13-0.82 0.19-1.15s0.17-0.87 0.24-1.2c0.08-0.33 0.19-0.82 0.26-1.09s0.19-0.72 0.27-1c0.08-0.29 0.21-0.73 0.29-0.98 0.08-0.26 0.22-0.67 0.31-0.92s0.26-0.69 0.37-0.97 0.3-0.72 0.41-0.98 0.32-0.7 0.47-0.99c0.14-0.29 0.34-0.67 0.45-0.86 0.1-0.18 0.27-0.48 0.38-0.66s0.31-0.51 0.45-0.72c0.14-0.22 0.36-0.54 0.49-0.73 0.13-0.18 0.37-0.49 0.52-0.68 0.15-0.2 0.39-0.49 0.53-0.66 0.14-0.16 0.42-0.47 0.62-0.69 0.2-0.21 0.55-0.56 0.77-0.76 0.22-0.21 0.51-0.47 0.65-0.6 0.14-0.12 0.41-0.34 0.61-0.49 0.19-0.16 0.5-0.39 0.69-0.53 0.2-0.14 0.49-0.35 0.65-0.45 0.16-0.11 0.47-0.31 0.67-0.43 0.21-0.13 0.57-0.34 0.79-0.46 0.22-0.13 0.67-0.36 0.99-0.52 0.33-0.16 0.77-0.37 0.99-0.47 0.23-0.09 0.62-0.25 0.87-0.35 0.26-0.11 0.68-0.26 0.93-0.35 0.26-0.09 0.68-0.24 0.95-0.32 0.26-0.08 0.59-0.18 0.73-0.22s0.45-0.12 0.68-0.18c0.23-0.07 0.65-0.17 0.94-0.24 0.3-0.07 0.78-0.17 1.08-0.23s0.82-0.16 1.15-0.21c0.33-0.06 0.87-0.14 1.21-0.18 0.34-0.05 0.87-0.12 1.19-0.15s0.84-0.09 1.16-0.11c0.33-0.03 0.86-0.07 1.18-0.09s0.92-0.04 1.33-0.06c0.42-0.01 0.99-0.03 1.29-0.03s0.57-0.01 0.6-0.01zm0.09 15.49c-5.02-0.01-9.21 0-9.32 0.01s-0.33 0.04-0.48 0.07c-0.14 0.03-0.38 0.09-0.52 0.14s-0.35 0.13-0.47 0.19c-0.12 0.05-0.31 0.17-0.43 0.25-0.13 0.08-0.33 0.25-0.47 0.39s-0.3 0.32-0.36 0.42c-0.07 0.09-0.22 0.32-0.34 0.51s-0.27 0.45-0.34 0.59c-0.07 0.13-0.17 0.39-0.23 0.58-0.06 0.18-0.14 0.45-0.17 0.61l-0.05 0.28-0.01 10.52c-0.01 7.35 0 10.6 0.02 10.78 0.01 0.14 0.05 0.36 0.07 0.49 0.03 0.13 0.09 0.36 0.15 0.52 0.05 0.16 0.16 0.41 0.23 0.56s0.26 0.46 0.41 0.69 0.34 0.51 0.43 0.62c0.09 0.1 0.24 0.25 0.32 0.33 0.09 0.08 0.24 0.19 0.32 0.25 0.09 0.06 0.27 0.17 0.41 0.24s0.36 0.16 0.51 0.21c0.14 0.05 0.38 0.1 0.52 0.13 0.15 0.03 0.39 0.06 0.54 0.08 0.17 0.01 3.37 0.02 9.15 0.02 6 0 8.97-0.01 9.16-0.02 0.15-0.02 0.42-0.06 0.59-0.09 0.17-0.04 0.42-0.1 0.57-0.15s0.41-0.16 0.57-0.24c0.16-0.09 0.39-0.22 0.5-0.3s0.32-0.25 0.46-0.39c0.14-0.13 0.33-0.33 0.41-0.44 0.09-0.11 0.22-0.3 0.29-0.42 0.08-0.11 0.2-0.33 0.27-0.48s0.17-0.38 0.22-0.5c0.05-0.13 0.13-0.38 0.19-0.56 0.05-0.19 0.13-0.5 0.17-0.7 0.04-0.21 0.09-0.54 0.12-0.75s0.06-0.56 0.07-0.78c0.02-0.25 0.03-3.39 0.03-8.93s-0.01-8.67-0.03-8.93c-0.01-0.21-0.04-0.56-0.07-0.77s-0.08-0.53-0.11-0.7c-0.03-0.18-0.11-0.48-0.16-0.66-0.05-0.19-0.13-0.43-0.17-0.54-0.04-0.1-0.11-0.29-0.17-0.41-0.05-0.13-0.16-0.34-0.23-0.47-0.08-0.13-0.2-0.34-0.29-0.46-0.08-0.12-0.23-0.29-0.32-0.4-0.09-0.1-0.25-0.25-0.35-0.34-0.09-0.09-0.27-0.23-0.39-0.31s-0.33-0.2-0.46-0.26c-0.12-0.07-0.33-0.16-0.45-0.2s-0.32-0.1-0.45-0.13c-0.13-0.04-0.35-0.08-0.49-0.11l-0.26-0.04h-9.11z"
          fill="#fd8cc8" filter="url(#b)" opacity=".7" stroke="#fd8cc8" stroke-width="5" mix-blend-mode="screen">
<animate attributeName="fill" dur="6s"
         keyTimes="0;                        0.25;                        0.5;                        0.75;                        1"
         repeatCount="indefinite"
         values="#fecfe8;                      #feb9dd;                      #fda2d2;                      #fd8cc8; #fecfe8"/>
        <animate attributeName="stroke" dur="6s"
                 keyTimes="0;                        0.25;                        0.5;                        0.75;                        1"
                 repeatCount="indefinite"
                 values="#fecfe8;                      #feb9dd;                      #fda2d2;                      #fd8cc8; #fecfe8"/>
</path>
    <path d="m298.32 329.69c-9.59 0-16.92 2.9-21.99 8.71-5.07 5.72-7.61 12.12-7.61 19.22v7.33h-4.56c-5.44 0-8.16 3.78-8.16 11.34 0 2.49 0.18 4.57 0.55 6.23 0.37 1.56 0.97 2.76 1.8 3.59 0.83 0.74 1.61 1.25 2.35 1.52 0.83 0.19 1.85 0.33 3.04 0.42h4.98v36.65c0 2.12 0.05 3.73 0.14 4.84 0.19 1.11 0.65 2.35 1.38 3.73 0.74 1.29 1.94 2.26 3.6 2.91 1.75 0.55 4.06 0.83 6.92 0.83 2.85 0 5.16-0.28 6.91-0.83 1.84-0.56 3.09-1.48 3.73-2.77 0.74-1.38 1.2-2.63 1.39-3.73 0.18-1.11 0.27-2.68 0.27-4.71v-37.06l8.86 0.55c2.02 0 3.59-0.09 4.7-0.27 1.2-0.19 2.44-0.65 3.73-1.39 1.29-0.73 2.21-1.93 2.77-3.59 0.64-1.75 0.97-4.01 0.97-6.78 0-2.95-0.28-5.3-0.83-7.05-0.56-1.75-1.53-2.95-2.91-3.6-1.29-0.73-2.49-1.2-3.59-1.38-1.02-0.18-2.59-0.28-4.71-0.28l-8.99 0.83v-7.6c0-2.31 1.71-3.46 5.12-3.46h3.87c0.92-0.09 1.99-0.32 3.18-0.69 1.3-0.46 2.26-1.06 2.91-1.8 0.64-0.83 1.2-2.03 1.66-3.6 0.46-1.65 0.69-3.64 0.69-5.94 0-2.95-0.28-5.3-0.83-7.06-0.55-1.75-1.52-2.95-2.9-3.59-1.39-0.74-2.63-1.15-3.74-1.25-1.01-0.18-2.58-0.27-4.7-0.27zm35.43 0c-2.95 0-5.3 0.27-7.05 0.83-1.75 0.55-3 1.52-3.73 2.9-0.65 1.38-1.06 2.63-1.25 3.73-0.09 1.02-0.14 2.59-0.14 4.71v65.83c0 5.35 0.33 9.72 0.97 13.14 0.65 3.41 1.57 6.22 2.77 8.43 1.29 2.21 3.18 3.87 5.67 4.98 2.58 1.01 5.34 1.71 8.3 2.07 2.95 0.37 6.86 0.56 11.75 0.56 1.29 0 2.26-0.05 2.91-0.14 0.73-0.18 1.56-0.6 2.49-1.25 1.01-0.73 1.7-1.98 2.07-3.73 0.46-1.75 0.69-4.06 0.69-6.91 0-2.68-0.23-4.8-0.69-6.37-0.37-1.65-1.06-2.81-2.07-3.45-0.93-0.65-1.71-1.02-2.36-1.11-0.64-0.18-1.61-0.28-2.9-0.28-2.49 0-4.01-0.41-4.56-1.24-0.56-0.92-0.83-3.04-0.83-6.36v-64.03c0-2.12-0.1-3.74-0.28-4.85-0.09-1.1-0.51-2.3-1.25-3.59-0.73-1.38-1.98-2.35-3.73-2.91-1.66-0.64-3.92-0.96-6.78-0.96zm406.04 32.91c-20.01 0-30.01 7.29-30.01 21.85 0 4.89 0.87 9.13 2.62 12.73 1.76 3.5 3.97 6.08 6.64 7.74 2.68 1.66 5.53 3.09 8.58 4.29 3.13 1.11 6.04 1.84 8.71 2.21s4.89 0.88 6.64 1.52c1.75 0.65 2.63 1.43 2.63 2.35 0 2.22-2.82 3.32-8.44 3.32-3.13 0-6.96-1.29-11.48-3.87-3.23-1.94-6.04-2.9-8.44-2.9-2.12 0-3.68 0.78-4.7 2.35-3.5 4.88-5.25 8.66-5.25 11.34 0 2.12 0.87 3.73 2.62 4.84 8.21 5.16 16.97 7.74 26.28 7.74 4.33 0 8.16-0.32 11.48-0.97 3.41-0.64 6.73-1.75 9.96-3.31 3.32-1.66 5.85-4.15 7.6-7.47 1.85-3.41 2.77-7.61 2.77-12.59 0-4.61-0.92-8.48-2.77-11.61-1.75-3.23-4.01-5.49-6.77-6.78-2.68-1.38-5.58-2.54-8.72-3.46-3.13-0.92-6.08-1.52-8.85-1.8-2.67-0.37-4.93-0.96-6.77-1.79-1.75-0.93-2.63-2.12-2.63-3.6 0-2.03 2.72-3.04 8.16-3.04 3.5 0 7.24 0.92 11.2 2.76 2.03 0.93 3.6 1.39 4.7 1.39 2.12 0 4.24-1.66 6.36-4.98 1.94-3.14 2.91-5.63 2.91-7.47 0-2.58-1.61-4.61-4.84-6.09-6.92-3.13-13.65-4.7-20.19-4.7zm-337.63 0.31c-0.65 0.01-1.49 0.02-1.85 0.03s-0.93 0.03-1.25 0.04c-0.32 0.02-0.92 0.05-1.32 0.08-0.41 0.03-0.93 0.06-1.17 0.08-0.23 0.02-0.7 0.07-1.04 0.1-0.33 0.04-0.91 0.1-1.29 0.15-0.37 0.05-0.93 0.12-1.25 0.17-0.31 0.05-0.83 0.13-1.14 0.18-0.32 0.06-0.85 0.16-1.19 0.22-0.34 0.07-0.84 0.18-1.11 0.24-0.26 0.06-0.72 0.17-1.02 0.24-0.29 0.07-0.72 0.19-0.94 0.25-0.23 0.06-0.7 0.2-1.05 0.3-0.35 0.11-0.83 0.26-1.06 0.34-0.24 0.08-0.64 0.22-0.89 0.31s-0.69 0.26-0.99 0.38c-0.29 0.12-0.76 0.31-1.03 0.43s-0.72 0.32-1 0.46-0.75 0.37-1.03 0.51c-0.28 0.15-0.73 0.4-1 0.55-0.27 0.16-0.7 0.41-0.95 0.57-0.25 0.15-0.64 0.41-0.86 0.56-0.23 0.15-0.61 0.42-0.85 0.59-0.24 0.18-0.57 0.43-0.74 0.56s-0.43 0.34-0.59 0.47c-0.15 0.13-0.44 0.38-0.65 0.56-0.2 0.17-0.56 0.51-0.81 0.75-0.24 0.23-0.6 0.59-0.79 0.79-0.2 0.2-0.49 0.52-0.65 0.7s-0.44 0.5-0.61 0.71c-0.18 0.21-0.43 0.52-0.57 0.7-0.13 0.17-0.34 0.44-0.45 0.6-0.12 0.15-0.34 0.47-0.5 0.69-0.16 0.23-0.42 0.63-0.58 0.88s-0.4 0.64-0.53 0.87-0.35 0.6-0.48 0.84c-0.13 0.23-0.35 0.66-0.49 0.94s-0.35 0.73-0.47 0.98c-0.11 0.26-0.31 0.71-0.44 1.01-0.12 0.29-0.33 0.8-0.45 1.12-0.12 0.33-0.31 0.87-0.43 1.22-0.12 0.34-0.29 0.88-0.38 1.19s-0.21 0.72-0.27 0.91c-0.05 0.2-0.16 0.62-0.24 0.95-0.08 0.32-0.19 0.75-0.23 0.96-0.05 0.21-0.14 0.63-0.2 0.92-0.06 0.3-0.15 0.79-0.21 1.09-0.05 0.31-0.14 0.8-0.18 1.11-0.05 0.3-0.12 0.8-0.16 1.1-0.05 0.3-0.11 0.79-0.14 1.09-0.03 0.29-0.09 0.84-0.12 1.21s-0.08 0.91-0.1 1.19-0.05 0.83-0.07 1.22-0.05 1.06-0.06 1.49c-0.02 0.42-0.03 1.37-0.03 2.11 0 0.75 0.01 1.68 0.03 2.09 0.01 0.4 0.03 0.98 0.04 1.27 0.02 0.3 0.05 0.86 0.08 1.25 0.02 0.39 0.08 1.01 0.11 1.39 0.03 0.37 0.09 0.91 0.12 1.21 0.04 0.29 0.09 0.75 0.12 1 0.04 0.26 0.1 0.72 0.15 1.03s0.14 0.84 0.2 1.18c0.06 0.33 0.15 0.82 0.2 1.09 0.06 0.26 0.14 0.68 0.2 0.93s0.18 0.75 0.27 1.13c0.09 0.37 0.23 0.89 0.31 1.15 0.07 0.26 0.19 0.67 0.27 0.92 0.07 0.24 0.22 0.68 0.32 0.98 0.1 0.29 0.27 0.78 0.39 1.08 0.11 0.29 0.31 0.8 0.44 1.12 0.14 0.33 0.34 0.8 0.46 1.05 0.12 0.26 0.33 0.69 0.46 0.96 0.14 0.27 0.35 0.68 0.48 0.91 0.12 0.23 0.32 0.59 0.44 0.79 0.11 0.2 0.31 0.53 0.44 0.74s0.37 0.57 0.53 0.82c0.17 0.24 0.45 0.64 0.63 0.89s0.51 0.68 0.73 0.96c0.22 0.27 0.51 0.62 0.64 0.77s0.39 0.44 0.58 0.65 0.62 0.64 0.94 0.97c0.33 0.32 0.75 0.72 0.93 0.88s0.46 0.4 0.62 0.54c0.17 0.13 0.41 0.33 0.54 0.44 0.14 0.11 0.42 0.33 0.64 0.49s0.56 0.42 0.77 0.56c0.21 0.15 0.58 0.4 0.82 0.55 0.25 0.16 0.62 0.39 0.82 0.52 0.21 0.12 0.6 0.35 0.86 0.49 0.26 0.15 0.65 0.35 0.85 0.46 0.2 0.1 0.59 0.29 0.85 0.42 0.27 0.13 0.64 0.3 0.81 0.38 0.18 0.08 0.43 0.19 0.57 0.25s0.42 0.17 0.63 0.26c0.2 0.08 0.61 0.23 0.9 0.34s0.78 0.28 1.1 0.39c0.32 0.1 0.8 0.25 1.07 0.34 0.26 0.08 0.68 0.2 0.93 0.27 0.24 0.06 0.64 0.17 0.88 0.23s0.66 0.16 0.92 0.22 0.72 0.16 1.01 0.22c0.3 0.06 0.78 0.15 1.08 0.21 0.3 0.05 0.68 0.12 0.85 0.14 0.17 0.03 0.45 0.08 0.62 0.1 0.18 0.03 0.61 0.09 0.97 0.14 0.36 0.04 0.8 0.1 0.98 0.12s0.55 0.06 0.81 0.09c0.26 0.02 0.75 0.07 1.09 0.1 0.33 0.02 0.88 0.06 1.2 0.08s0.81 0.05 1.09 0.06c0.28 0.02 0.98 0.04 1.57 0.05 0.65 0.02 1.59 0.03 2.41 0.02 0.74-0.01 1.62-0.03 1.96-0.04s0.83-0.04 1.09-0.05c0.26-0.02 0.79-0.05 1.18-0.08 0.38-0.02 0.99-0.07 1.36-0.11 0.36-0.03 0.9-0.09 1.2-0.12 0.29-0.03 0.78-0.09 1.07-0.13 0.3-0.04 0.8-0.12 1.11-0.16 0.31-0.05 0.89-0.15 1.29-0.22 0.41-0.08 1-0.19 1.32-0.26 0.31-0.07 0.78-0.17 1.04-0.23 0.25-0.06 0.69-0.17 0.98-0.25 0.28-0.07 0.75-0.2 1.05-0.29s0.73-0.22 0.95-0.29c0.23-0.08 0.62-0.2 0.86-0.29 0.24-0.08 0.68-0.24 0.97-0.34 0.28-0.11 0.71-0.28 0.96-0.38 0.24-0.1 0.66-0.28 0.92-0.4 0.27-0.11 0.84-0.39 1.28-0.61s0.98-0.5 1.2-0.62 0.59-0.33 0.82-0.47 0.6-0.37 0.83-0.52c0.22-0.14 0.57-0.38 0.78-0.52s0.57-0.4 0.8-0.58c0.24-0.17 0.62-0.47 0.85-0.66 0.24-0.18 0.61-0.5 0.83-0.69 0.23-0.2 0.61-0.55 0.84-0.77 0.24-0.23 0.62-0.6 0.84-0.84 0.23-0.23 0.52-0.54 0.65-0.69s0.4-0.47 0.6-0.7c0.2-0.24 0.47-0.57 0.61-0.75 0.13-0.18 0.38-0.5 0.54-0.72s0.43-0.62 0.61-0.88c0.17-0.27 0.42-0.65 0.54-0.85 0.13-0.2 0.36-0.58 0.51-0.84 0.15-0.27 0.39-0.7 0.53-0.97s0.37-0.73 0.5-1.01c0.14-0.29 0.3-0.63 0.36-0.76s0.17-0.38 0.24-0.56c0.08-0.17 0.22-0.52 0.31-0.76 0.1-0.24 0.21-0.53 0.25-0.63 0.04-0.11 0.16-0.44 0.27-0.74 0.1-0.3 0.27-0.79 0.36-1.09 0.1-0.3 0.24-0.77 0.31-1.03 0.08-0.26 0.22-0.8 0.32-1.19s0.23-0.94 0.29-1.22c0.07-0.28 0.17-0.79 0.24-1.12 0.06-0.33 0.16-0.86 0.21-1.18 0.06-0.33 0.13-0.78 0.17-1 0.03-0.22 0.1-0.71 0.14-1.08 0.05-0.37 0.12-0.93 0.15-1.24 0.03-0.32 0.08-0.85 0.11-1.17s0.07-0.85 0.09-1.16c0.02-0.32 0.04-0.8 0.06-1.08 0.01-0.28 0.03-0.84 0.05-1.26 0.01-0.42 0.02-1.36 0.02-2.1 0-0.73-0.01-1.67-0.02-2.09-0.02-0.42-0.04-0.99-0.05-1.28-0.02-0.28-0.05-0.76-0.07-1.07s-0.05-0.83-0.08-1.15c-0.03-0.33-0.08-0.85-0.11-1.17s-0.1-0.88-0.15-1.24c-0.04-0.37-0.11-0.86-0.15-1.08-0.03-0.23-0.1-0.67-0.16-1-0.05-0.32-0.16-0.91-0.24-1.31s-0.2-0.96-0.27-1.26c-0.06-0.3-0.19-0.8-0.27-1.11s-0.21-0.78-0.28-1.04c-0.08-0.26-0.21-0.7-0.3-0.99-0.09-0.28-0.23-0.73-0.33-1-0.09-0.27-0.25-0.69-0.34-0.94s-0.26-0.67-0.36-0.92c-0.11-0.26-0.27-0.63-0.36-0.83-0.08-0.2-0.25-0.56-0.37-0.81-0.11-0.24-0.3-0.63-0.42-0.85-0.11-0.22-0.32-0.6-0.45-0.85-0.14-0.24-0.34-0.58-0.45-0.77-0.1-0.18-0.32-0.53-0.47-0.77-0.16-0.24-0.4-0.61-0.55-0.83s-0.4-0.56-0.56-0.77c-0.15-0.21-0.44-0.59-0.65-0.85-0.2-0.25-0.54-0.65-0.74-0.88s-0.54-0.6-0.76-0.83-0.59-0.61-0.83-0.84-0.56-0.53-0.72-0.67c-0.15-0.14-0.47-0.41-0.7-0.6s-0.56-0.46-0.75-0.6c-0.18-0.15-0.5-0.39-0.71-0.54-0.2-0.15-0.63-0.45-0.95-0.66s-0.81-0.52-1.09-0.69-0.66-0.39-0.83-0.48c-0.17-0.1-0.52-0.29-0.78-0.42-0.25-0.14-0.68-0.35-0.97-0.49-0.28-0.13-0.71-0.33-0.95-0.44-0.25-0.11-0.74-0.31-1.09-0.45-0.36-0.14-0.93-0.36-1.27-0.48-0.34-0.13-0.9-0.31-1.23-0.42-0.34-0.11-0.85-0.26-1.14-0.34-0.28-0.08-0.75-0.21-1.04-0.28-0.29-0.08-0.77-0.2-1.06-0.26-0.3-0.07-0.89-0.2-1.33-0.28-0.43-0.09-1.08-0.21-1.44-0.27-0.37-0.06-0.89-0.14-1.16-0.18-0.28-0.04-0.78-0.11-1.11-0.15s-0.87-0.1-1.2-0.14c-0.33-0.03-0.87-0.08-1.2-0.11-0.33-0.02-0.86-0.06-1.19-0.09-0.32-0.02-0.83-0.04-1.12-0.06-0.3-0.01-0.93-0.03-1.41-0.05-0.48-0.01-1.41-0.02-2.06-0.02zm56.81 0.24c-2.02 0-4.51 0.6-7.46 1.8-5.26 2.12-7.89 5.03-7.89 8.72 0 0.83 0.46 2.62 1.39 5.39l19.77 48.54 1.11 2.35c0.64 1.66 1.94 3.32 3.87 4.98 1.94 1.57 4.2 2.35 6.78 2.35 1.66 0 3.18-0.32 4.56-0.97 1.48-0.73 2.63-1.52 3.46-2.35 0.83-0.82 1.57-1.79 2.21-2.9 0.65-1.11 1.02-1.84 1.11-2.21 0.18-0.46 0.32-0.83 0.41-1.11 0.92-2.21 2.26-5.81 4.01-10.79 1.85-5.07 3.23-8.71 4.15-10.92 0.28 0.73 1.57 4.19 3.88 10.37 2.3 6.09 3.73 9.82 4.28 11.2l1.11 2.35c0.64 1.66 1.94 3.32 3.87 4.98 2.03 1.57 4.33 2.35 6.92 2.35 1.66 0 3.18-0.32 4.56-0.97 1.38-0.73 2.44-1.52 3.18-2.35 0.83-0.82 1.57-1.79 2.21-2.9 0.65-1.11 1.02-1.84 1.11-2.21 0.18-0.46 0.32-0.83 0.41-1.11l15.22-37.06c1.01-2.59 2.58-6.41 4.7-11.48 0.83-1.85 1.24-3.55 1.24-5.12 0-3.78-2.95-6.96-8.85-9.54-1.93-0.92-3.78-1.39-5.53-1.39-4.42 0-7.74 2.96-9.96 8.86l-8.43 22.95c-0.83-1.84-3.55-9.22-8.16-22.12l-1.11-2.36c-0.74-1.47-2.12-2.95-4.15-4.42-1.93-1.48-4.19-2.21-6.77-2.21-1.48 0-2.91 0.32-4.29 0.96-1.38 0.65-2.49 1.39-3.32 2.22-0.74 0.73-1.47 1.61-2.21 2.63-0.65 1.01-1.06 1.7-1.25 2.07-0.18 0.37-0.32 0.69-0.41 0.97l-8.16 22.4c-0.37-1.01-2.03-5.39-4.98-13.14-2.86-7.83-4.33-11.89-4.43-12.17-0.55-1.29-1.06-2.3-1.52-3.04-0.46-0.83-1.29-1.61-2.49-2.35-1.1-0.83-2.49-1.25-4.15-1.25zm130.34 0c-4.05 0-8.25 0.79-12.58 2.36-4.24 1.56-8.25 3.82-12.03 6.77-3.69 2.95-6.74 6.87-9.13 11.76-2.4 4.79-3.6 10.14-3.6 16.04 0 5.99 1.2 11.48 3.6 16.46 2.39 4.89 5.48 8.8 9.26 11.75s7.79 5.26 12.04 6.92c4.33 1.57 8.57 2.35 12.72 2.35 7.65 0 14.11-1.84 19.36-5.53 5.07-3.05 7.61-6.32 7.61-9.82 0-2.12-1.06-4.52-3.18-7.19-3.97-4.89-7.33-7.33-10.1-7.33-1.57 0-3.87 0.97-6.91 2.9l-0.83 0.55c-0.47 0.37-1.29 0.74-2.49 1.11s-2.54 0.55-4.01 0.55c-2.96 0-5.72-1.06-8.3-3.18-2.58-2.21-3.87-5.3-3.87-9.26 0-3.87 1.33-6.92 4.01-9.13 2.67-2.21 5.48-3.32 8.43-3.32 3.23 0 5.67 0.78 7.33 2.35 3.23 2.03 5.72 3.04 7.47 3.04 3.04 0 6.22-2.53 9.54-7.6 1.94-2.95 2.91-5.53 2.91-7.75 0-1.38-0.42-2.62-1.25-3.73-0.74-1.2-1.57-2.12-2.49-2.77-0.83-0.64-2.07-1.52-3.73-2.62l-2.21-1.39c-1.57-0.92-4.01-1.84-7.33-2.76-3.32-1.02-6.73-1.53-10.24-1.53zm48.49 0.7c-2.95 0-5.31 0.27-7.06 0.83-1.75 0.55-2.99 1.52-3.73 2.9-0.65 1.38-1.06 2.58-1.25 3.6-0.09 1.01-0.13 2.62-0.13 4.84v24.2c0 10.14 3.04 18.76 9.12 25.86 6.18 7.01 13.93 10.51 23.24 10.51 1.93 0 3.82-0.32 5.67-0.97 1.84-0.64 3.36-1.33 4.56-2.07 1.2-0.83 2.31-1.75 3.32-2.77 1.11-1.01 1.8-1.7 2.08-2.07 0.36-0.37 0.64-0.69 0.83-0.97 0 1.2 0.04 2.17 0.13 2.9 0.19 0.74 0.6 1.66 1.25 2.77 0.64 1.11 1.84 1.94 3.59 2.49 1.76 0.55 4.02 0.83 6.78 0.83 2.86 0 5.16-0.28 6.92-0.83 1.75-0.55 2.99-1.47 3.73-2.77 0.74-1.29 1.15-2.44 1.24-3.45 0.19-1.11 0.28-2.68 0.28-4.71v-48.95c0-2.12-0.09-3.69-0.28-4.71-0.09-1.1-0.5-2.35-1.24-3.73-0.65-1.38-1.84-2.35-3.6-2.9-1.75-0.56-4.05-0.83-6.91-0.83-2.95 0-5.3 0.27-7.05 0.83-1.76 0.55-3 1.52-3.74 2.9-0.64 1.29-1.06 2.49-1.24 3.6-0.1 1.01-0.14 2.58-0.14 4.7v24.48c0 3.59-1.15 6.5-3.46 8.71-2.21 2.21-5.12 3.32-8.71 3.32-3.69 0-6.64-1.06-8.85-3.18-2.12-2.12-3.18-5.07-3.18-8.85v-24.2c0-1.76-0.05-3.05-0.14-3.88 0-0.92-0.23-1.98-0.69-3.18-0.37-1.29-0.97-2.26-1.8-2.9-0.83-0.65-2.03-1.2-3.6-1.66-1.56-0.46-3.55-0.69-5.94-0.69zm-235.69 6.54c0.04 0 0.61 0 1.29 0.02 0.67 0.01 1.54 0.04 1.93 0.06s1 0.06 1.34 0.08c0.35 0.03 0.9 0.08 1.23 0.11 0.33 0.04 0.82 0.09 1.09 0.13 0.26 0.03 0.74 0.1 1.05 0.15 0.31 0.04 0.77 0.12 1.03 0.17 0.26 0.04 0.71 0.13 1 0.19 0.3 0.06 0.83 0.18 1.18 0.27s0.82 0.21 1.04 0.27 0.6 0.17 0.84 0.25c0.24 0.07 0.64 0.2 0.88 0.29 0.25 0.08 0.62 0.22 0.84 0.31 0.21 0.08 0.63 0.25 0.92 0.37s0.79 0.36 1.12 0.52 0.77 0.39 0.97 0.5 0.5 0.29 0.67 0.39 0.53 0.33 0.8 0.51c0.28 0.18 0.7 0.47 0.94 0.65s0.58 0.46 0.76 0.61c0.19 0.15 0.49 0.41 0.68 0.59 0.19 0.17 0.52 0.49 0.74 0.72 0.23 0.23 0.52 0.54 0.66 0.7 0.13 0.15 0.35 0.41 0.48 0.57s0.35 0.44 0.49 0.62c0.14 0.19 0.3 0.41 0.36 0.5 0.06 0.08 0.22 0.32 0.36 0.52 0.13 0.2 0.34 0.54 0.46 0.74s0.31 0.52 0.42 0.71c0.1 0.19 0.3 0.57 0.44 0.84 0.14 0.28 0.29 0.59 0.34 0.7s0.15 0.34 0.22 0.51c0.08 0.16 0.23 0.52 0.33 0.79 0.11 0.27 0.29 0.73 0.39 1.03 0.11 0.3 0.26 0.75 0.34 1.02 0.08 0.26 0.22 0.72 0.3 1.01 0.08 0.3 0.21 0.78 0.28 1.08s0.18 0.78 0.25 1.08c0.06 0.3 0.16 0.8 0.22 1.13 0.06 0.32 0.14 0.84 0.19 1.16s0.12 0.83 0.16 1.15 0.1 0.85 0.14 1.18c0.03 0.33 0.08 0.88 0.1 1.23 0.03 0.35 0.07 0.94 0.09 1.31 0.02 0.38 0.05 1.02 0.06 1.44 0.02 0.42 0.03 1.34 0.03 2.04 0 0.71-0.01 1.63-0.03 2.05-0.01 0.42-0.04 1.06-0.06 1.43s-0.05 0.9-0.07 1.17-0.07 0.78-0.1 1.13c-0.04 0.36-0.1 0.92-0.14 1.24s-0.11 0.85-0.16 1.18c-0.04 0.32-0.13 0.83-0.18 1.14-0.05 0.3-0.15 0.79-0.21 1.09-0.06 0.29-0.16 0.74-0.22 1s-0.17 0.7-0.24 0.98c-0.08 0.28-0.21 0.74-0.29 1.01s-0.22 0.7-0.3 0.96c-0.09 0.27-0.24 0.7-0.35 0.97-0.1 0.26-0.25 0.65-0.33 0.85-0.09 0.21-0.23 0.54-0.32 0.73-0.09 0.2-0.28 0.61-0.43 0.91s-0.35 0.69-0.45 0.86c-0.09 0.16-0.27 0.46-0.38 0.66-0.12 0.19-0.36 0.58-0.55 0.85-0.18 0.28-0.47 0.7-0.64 0.92-0.17 0.23-0.41 0.54-0.53 0.68-0.11 0.14-0.32 0.39-0.46 0.55-0.15 0.16-0.44 0.47-0.66 0.69-0.21 0.23-0.55 0.56-0.75 0.74-0.21 0.18-0.5 0.44-0.65 0.57-0.16 0.13-0.43 0.34-0.6 0.48-0.18 0.13-0.51 0.37-0.74 0.53s-0.6 0.41-0.84 0.56c-0.23 0.14-0.61 0.37-0.85 0.51-0.24 0.13-0.65 0.35-0.92 0.49-0.26 0.13-0.65 0.31-0.85 0.41l-0.77 0.33c-0.21 0.09-0.6 0.24-0.87 0.34-0.26 0.1-0.7 0.26-0.97 0.35s-0.74 0.23-1.03 0.32c-0.3 0.09-0.76 0.21-1.02 0.28s-0.67 0.17-0.92 0.22c-0.24 0.06-0.66 0.15-0.93 0.2s-0.71 0.14-0.98 0.18c-0.27 0.05-0.72 0.12-1 0.16s-0.73 0.1-1 0.13c-0.28 0.04-0.78 0.09-1.12 0.13-0.35 0.03-0.86 0.07-1.14 0.09-0.29 0.02-0.71 0.05-0.96 0.07-0.24 0.01-0.74 0.03-1.1 0.05-0.36 0.01-1.32 0.02-2.12 0.02s-1.76-0.01-2.12-0.03c-0.36-0.01-0.94-0.04-1.28-0.06-0.35-0.02-0.89-0.06-1.21-0.08-0.31-0.03-0.78-0.07-1.04-0.1-0.25-0.03-0.68-0.08-0.95-0.11-0.27-0.04-0.74-0.1-1.04-0.15-0.31-0.05-0.74-0.12-0.97-0.16s-0.63-0.12-0.89-0.17c-0.27-0.05-0.7-0.15-0.96-0.21s-0.7-0.17-0.98-0.24c-0.28-0.08-0.68-0.19-0.91-0.26-0.22-0.06-0.65-0.2-0.94-0.3-0.3-0.1-0.71-0.24-0.91-0.32-0.21-0.08-0.58-0.22-0.84-0.33-0.25-0.1-0.62-0.27-0.82-0.36s-0.6-0.28-0.88-0.43c-0.29-0.14-0.71-0.37-0.94-0.5-0.22-0.13-0.54-0.31-0.69-0.41-0.16-0.1-0.46-0.29-0.67-0.43-0.2-0.14-0.56-0.4-0.79-0.57s-0.52-0.39-0.65-0.5c-0.13-0.1-0.39-0.33-0.59-0.5-0.19-0.17-0.58-0.53-0.86-0.81-0.27-0.28-0.61-0.63-0.75-0.78-0.13-0.16-0.34-0.4-0.46-0.54s-0.38-0.48-0.58-0.75-0.51-0.71-0.69-0.98-0.41-0.64-0.52-0.82-0.28-0.48-0.38-0.66-0.3-0.56-0.43-0.83c-0.14-0.27-0.33-0.66-0.42-0.87-0.09-0.2-0.24-0.55-0.33-0.76s-0.24-0.6-0.35-0.88c-0.1-0.27-0.27-0.74-0.37-1.05-0.1-0.3-0.26-0.83-0.36-1.17-0.1-0.35-0.23-0.83-0.29-1.07s-0.16-0.66-0.22-0.93-0.16-0.71-0.21-0.99c-0.06-0.27-0.15-0.79-0.21-1.16-0.06-0.36-0.15-0.93-0.2-1.27-0.04-0.34-0.11-0.87-0.14-1.17-0.04-0.31-0.09-0.8-0.11-1.11-0.03-0.3-0.07-0.8-0.09-1.1s-0.05-0.75-0.06-1c-0.02-0.25-0.04-0.85-0.05-1.33-0.02-0.54-0.03-1.49-0.02-2.54 0.01-0.93 0.03-1.91 0.04-2.2 0.02-0.28 0.04-0.79 0.06-1.14 0.02-0.34 0.07-0.93 0.1-1.32 0.04-0.38 0.09-0.95 0.13-1.25 0.03-0.3 0.08-0.75 0.12-1 0.03-0.25 0.1-0.7 0.15-1.01 0.04-0.3 0.13-0.82 0.19-1.15s0.17-0.87 0.24-1.2c0.08-0.33 0.19-0.82 0.26-1.09s0.19-0.72 0.27-1c0.08-0.29 0.21-0.73 0.29-0.98 0.08-0.26 0.22-0.67 0.31-0.92s0.26-0.69 0.37-0.97 0.3-0.72 0.41-0.98 0.32-0.7 0.47-0.99c0.14-0.29 0.34-0.67 0.45-0.86 0.1-0.18 0.27-0.48 0.38-0.66s0.31-0.51 0.45-0.72c0.14-0.22 0.36-0.54 0.49-0.73 0.13-0.18 0.37-0.49 0.52-0.68 0.15-0.2 0.39-0.49 0.53-0.66 0.14-0.16 0.42-0.47 0.62-0.69 0.2-0.21 0.55-0.56 0.77-0.76 0.22-0.21 0.51-0.47 0.65-0.6 0.14-0.12 0.41-0.34 0.61-0.49 0.19-0.16 0.5-0.39 0.69-0.53 0.2-0.14 0.49-0.35 0.65-0.45 0.16-0.11 0.47-0.31 0.67-0.43 0.21-0.13 0.57-0.34 0.79-0.46 0.22-0.13 0.67-0.36 0.99-0.52 0.33-0.16 0.77-0.37 0.99-0.47 0.23-0.09 0.62-0.25 0.87-0.35 0.26-0.11 0.68-0.26 0.93-0.35 0.26-0.09 0.68-0.24 0.95-0.32 0.26-0.08 0.59-0.18 0.73-0.22s0.45-0.12 0.68-0.18c0.23-0.07 0.65-0.17 0.94-0.24 0.3-0.07 0.78-0.17 1.08-0.23s0.82-0.16 1.15-0.21c0.33-0.06 0.87-0.14 1.21-0.18 0.34-0.05 0.87-0.12 1.19-0.15s0.84-0.09 1.16-0.11c0.33-0.03 0.86-0.07 1.18-0.09s0.92-0.04 1.33-0.06c0.42-0.01 0.99-0.03 1.29-0.03s0.57-0.01 0.6-0.01zm0.09 15.49c-5.02-0.01-9.21 0-9.32 0.01s-0.33 0.04-0.48 0.07c-0.14 0.03-0.38 0.09-0.52 0.14s-0.35 0.13-0.47 0.19c-0.12 0.05-0.31 0.17-0.43 0.25-0.13 0.08-0.33 0.25-0.47 0.39s-0.3 0.32-0.36 0.42c-0.07 0.09-0.22 0.32-0.34 0.51s-0.27 0.45-0.34 0.59c-0.07 0.13-0.17 0.39-0.23 0.58-0.06 0.18-0.14 0.45-0.17 0.61l-0.05 0.28-0.01 10.52c-0.01 7.35 0 10.6 0.02 10.78 0.01 0.14 0.05 0.36 0.07 0.49 0.03 0.13 0.09 0.36 0.15 0.52 0.05 0.16 0.16 0.41 0.23 0.56s0.26 0.46 0.41 0.69 0.34 0.51 0.43 0.62c0.09 0.1 0.24 0.25 0.32 0.33 0.09 0.08 0.24 0.19 0.32 0.25 0.09 0.06 0.27 0.17 0.41 0.24s0.36 0.16 0.51 0.21c0.14 0.05 0.38 0.1 0.52 0.13 0.15 0.03 0.39 0.06 0.54 0.08 0.17 0.01 3.37 0.02 9.15 0.02 6 0 8.97-0.01 9.16-0.02 0.15-0.02 0.42-0.06 0.59-0.09 0.17-0.04 0.42-0.1 0.57-0.15s0.41-0.16 0.57-0.24c0.16-0.09 0.39-0.22 0.5-0.3s0.32-0.25 0.46-0.39c0.14-0.13 0.33-0.33 0.41-0.44 0.09-0.11 0.22-0.3 0.29-0.42 0.08-0.11 0.2-0.33 0.27-0.48s0.17-0.38 0.22-0.5c0.05-0.13 0.13-0.38 0.19-0.56 0.05-0.19 0.13-0.5 0.17-0.7 0.04-0.21 0.09-0.54 0.12-0.75s0.06-0.56 0.07-0.78c0.02-0.25 0.03-3.39 0.03-8.93s-0.01-8.67-0.03-8.93c-0.01-0.21-0.04-0.56-0.07-0.77s-0.08-0.53-0.11-0.7c-0.03-0.18-0.11-0.48-0.16-0.66-0.05-0.19-0.13-0.43-0.17-0.54-0.04-0.1-0.11-0.29-0.17-0.41-0.05-0.13-0.16-0.34-0.23-0.47-0.08-0.13-0.2-0.34-0.29-0.46-0.08-0.12-0.23-0.29-0.32-0.4-0.09-0.1-0.25-0.25-0.35-0.34-0.09-0.09-0.27-0.23-0.39-0.31s-0.33-0.2-0.46-0.26c-0.12-0.07-0.33-0.16-0.45-0.2s-0.32-0.1-0.45-0.13c-0.13-0.04-0.35-0.08-0.49-0.11l-0.26-0.04h-9.11z"
          fill="#fd8cc8" filter="url(#c)" stroke="#fd8cc8" stroke-width="5" mix-blend-mode="screen">
<animate attributeName="fill" dur="6s"
         keyTimes="0;                        0.25;                        0.5;                        0.75;                        1"
         repeatCount="indefinite"
         values="#fecfe8;                      #feb9dd;                      #fda2d2;                      #fd8cc8; #fecfe8"/>
        <animate attributeName="stroke" dur="6s"
                 keyTimes="0;                        0.25;                        0.5;                        0.75;                        1"
                 repeatCount="indefinite"
                 values="#fecfe8;                      #feb9dd;                      #fda2d2;                      #fd8cc8; #fecfe8"/>
</path>
    <path transform="translate(3 15)"
          d="m298.32 329.69c-9.59 0-16.92 2.9-21.99 8.71-5.07 5.72-7.61 12.12-7.61 19.22v7.33h-4.56c-5.44 0-8.16 3.78-8.16 11.34 0 2.49 0.18 4.57 0.55 6.23 0.37 1.56 0.97 2.76 1.8 3.59 0.83 0.74 1.61 1.25 2.35 1.52 0.83 0.19 1.85 0.33 3.04 0.42h4.98v36.65c0 2.12 0.05 3.73 0.14 4.84 0.19 1.11 0.65 2.35 1.38 3.73 0.74 1.29 1.94 2.26 3.6 2.91 1.75 0.55 4.06 0.83 6.92 0.83 2.85 0 5.16-0.28 6.91-0.83 1.84-0.56 3.09-1.48 3.73-2.77 0.74-1.38 1.2-2.63 1.39-3.73 0.18-1.11 0.27-2.68 0.27-4.71v-37.06l8.86 0.55c2.02 0 3.59-0.09 4.7-0.27 1.2-0.19 2.44-0.65 3.73-1.39 1.29-0.73 2.21-1.93 2.77-3.59 0.64-1.75 0.97-4.01 0.97-6.78 0-2.95-0.28-5.3-0.83-7.05-0.56-1.75-1.53-2.95-2.91-3.6-1.29-0.73-2.49-1.2-3.59-1.38-1.02-0.18-2.59-0.28-4.71-0.28l-8.99 0.83v-7.6c0-2.31 1.71-3.46 5.12-3.46h3.87c0.92-0.09 1.99-0.32 3.18-0.69 1.3-0.46 2.26-1.06 2.91-1.8 0.64-0.83 1.2-2.03 1.66-3.6 0.46-1.65 0.69-3.64 0.69-5.94 0-2.95-0.28-5.3-0.83-7.06-0.55-1.75-1.52-2.95-2.9-3.59-1.39-0.74-2.63-1.15-3.74-1.25-1.01-0.18-2.58-0.27-4.7-0.27zm35.43 0c-2.95 0-5.3 0.27-7.05 0.83-1.75 0.55-3 1.52-3.73 2.9-0.65 1.38-1.06 2.63-1.25 3.73-0.09 1.02-0.14 2.59-0.14 4.71v65.83c0 5.35 0.33 9.72 0.97 13.14 0.65 3.41 1.57 6.22 2.77 8.43 1.29 2.21 3.18 3.87 5.67 4.98 2.58 1.01 5.34 1.71 8.3 2.07 2.95 0.37 6.86 0.56 11.75 0.56 1.29 0 2.26-0.05 2.91-0.14 0.73-0.18 1.56-0.6 2.49-1.25 1.01-0.73 1.7-1.98 2.07-3.73 0.46-1.75 0.69-4.06 0.69-6.91 0-2.68-0.23-4.8-0.69-6.37-0.37-1.65-1.06-2.81-2.07-3.45-0.93-0.65-1.71-1.02-2.36-1.11-0.64-0.18-1.61-0.28-2.9-0.28-2.49 0-4.01-0.41-4.56-1.24-0.56-0.92-0.83-3.04-0.83-6.36v-64.03c0-2.12-0.1-3.74-0.28-4.85-0.09-1.1-0.51-2.3-1.25-3.59-0.73-1.38-1.98-2.35-3.73-2.91-1.66-0.64-3.92-0.96-6.78-0.96zm406.04 32.91c-20.01 0-30.01 7.29-30.01 21.85 0 4.89 0.87 9.13 2.62 12.73 1.76 3.5 3.97 6.08 6.64 7.74 2.68 1.66 5.53 3.09 8.58 4.29 3.13 1.11 6.04 1.84 8.71 2.21s4.89 0.88 6.64 1.52c1.75 0.65 2.63 1.43 2.63 2.35 0 2.22-2.82 3.32-8.44 3.32-3.13 0-6.96-1.29-11.48-3.87-3.23-1.94-6.04-2.9-8.44-2.9-2.12 0-3.68 0.78-4.7 2.35-3.5 4.88-5.25 8.66-5.25 11.34 0 2.12 0.87 3.73 2.62 4.84 8.21 5.16 16.97 7.74 26.28 7.74 4.33 0 8.16-0.32 11.48-0.97 3.41-0.64 6.73-1.75 9.96-3.31 3.32-1.66 5.85-4.15 7.6-7.47 1.85-3.41 2.77-7.61 2.77-12.59 0-4.61-0.92-8.48-2.77-11.61-1.75-3.23-4.01-5.49-6.77-6.78-2.68-1.38-5.58-2.54-8.72-3.46-3.13-0.92-6.08-1.52-8.85-1.8-2.67-0.37-4.93-0.96-6.77-1.79-1.75-0.93-2.63-2.12-2.63-3.6 0-2.03 2.72-3.04 8.16-3.04 3.5 0 7.24 0.92 11.2 2.76 2.03 0.93 3.6 1.39 4.7 1.39 2.12 0 4.24-1.66 6.36-4.98 1.94-3.14 2.91-5.63 2.91-7.47 0-2.58-1.61-4.61-4.84-6.09-6.92-3.13-13.65-4.7-20.19-4.7zm-337.63 0.31c-0.65 0.01-1.49 0.02-1.85 0.03s-0.93 0.03-1.25 0.04c-0.32 0.02-0.92 0.05-1.32 0.08-0.41 0.03-0.93 0.06-1.17 0.08-0.23 0.02-0.7 0.07-1.04 0.1-0.33 0.04-0.91 0.1-1.29 0.15-0.37 0.05-0.93 0.12-1.25 0.17-0.31 0.05-0.83 0.13-1.14 0.18-0.32 0.06-0.85 0.16-1.19 0.22-0.34 0.07-0.84 0.18-1.11 0.24-0.26 0.06-0.72 0.17-1.02 0.24-0.29 0.07-0.72 0.19-0.94 0.25-0.23 0.06-0.7 0.2-1.05 0.3-0.35 0.11-0.83 0.26-1.06 0.34-0.24 0.08-0.64 0.22-0.89 0.31s-0.69 0.26-0.99 0.38c-0.29 0.12-0.76 0.31-1.03 0.43s-0.72 0.32-1 0.46-0.75 0.37-1.03 0.51c-0.28 0.15-0.73 0.4-1 0.55-0.27 0.16-0.7 0.41-0.95 0.57-0.25 0.15-0.64 0.41-0.86 0.56-0.23 0.15-0.61 0.42-0.85 0.59-0.24 0.18-0.57 0.43-0.74 0.56s-0.43 0.34-0.59 0.47c-0.15 0.13-0.44 0.38-0.65 0.56-0.2 0.17-0.56 0.51-0.81 0.75-0.24 0.23-0.6 0.59-0.79 0.79-0.2 0.2-0.49 0.52-0.65 0.7s-0.44 0.5-0.61 0.71c-0.18 0.21-0.43 0.52-0.57 0.7-0.13 0.17-0.34 0.44-0.45 0.6-0.12 0.15-0.34 0.47-0.5 0.69-0.16 0.23-0.42 0.63-0.58 0.88s-0.4 0.64-0.53 0.87-0.35 0.6-0.48 0.84c-0.13 0.23-0.35 0.66-0.49 0.94s-0.35 0.73-0.47 0.98c-0.11 0.26-0.31 0.71-0.44 1.01-0.12 0.29-0.33 0.8-0.45 1.12-0.12 0.33-0.31 0.87-0.43 1.22-0.12 0.34-0.29 0.88-0.38 1.19s-0.21 0.72-0.27 0.91c-0.05 0.2-0.16 0.62-0.24 0.95-0.08 0.32-0.19 0.75-0.23 0.96-0.05 0.21-0.14 0.63-0.2 0.92-0.06 0.3-0.15 0.79-0.21 1.09-0.05 0.31-0.14 0.8-0.18 1.11-0.05 0.3-0.12 0.8-0.16 1.1-0.05 0.3-0.11 0.79-0.14 1.09-0.03 0.29-0.09 0.84-0.12 1.21s-0.08 0.91-0.1 1.19-0.05 0.83-0.07 1.22-0.05 1.06-0.06 1.49c-0.02 0.42-0.03 1.37-0.03 2.11 0 0.75 0.01 1.68 0.03 2.09 0.01 0.4 0.03 0.98 0.04 1.27 0.02 0.3 0.05 0.86 0.08 1.25 0.02 0.39 0.08 1.01 0.11 1.39 0.03 0.37 0.09 0.91 0.12 1.21 0.04 0.29 0.09 0.75 0.12 1 0.04 0.26 0.1 0.72 0.15 1.03s0.14 0.84 0.2 1.18c0.06 0.33 0.15 0.82 0.2 1.09 0.06 0.26 0.14 0.68 0.2 0.93s0.18 0.75 0.27 1.13c0.09 0.37 0.23 0.89 0.31 1.15 0.07 0.26 0.19 0.67 0.27 0.92 0.07 0.24 0.22 0.68 0.32 0.98 0.1 0.29 0.27 0.78 0.39 1.08 0.11 0.29 0.31 0.8 0.44 1.12 0.14 0.33 0.34 0.8 0.46 1.05 0.12 0.26 0.33 0.69 0.46 0.96 0.14 0.27 0.35 0.68 0.48 0.91 0.12 0.23 0.32 0.59 0.44 0.79 0.11 0.2 0.31 0.53 0.44 0.74s0.37 0.57 0.53 0.82c0.17 0.24 0.45 0.64 0.63 0.89s0.51 0.68 0.73 0.96c0.22 0.27 0.51 0.62 0.64 0.77s0.39 0.44 0.58 0.65 0.62 0.64 0.94 0.97c0.33 0.32 0.75 0.72 0.93 0.88s0.46 0.4 0.62 0.54c0.17 0.13 0.41 0.33 0.54 0.44 0.14 0.11 0.42 0.33 0.64 0.49s0.56 0.42 0.77 0.56c0.21 0.15 0.58 0.4 0.82 0.55 0.25 0.16 0.62 0.39 0.82 0.52 0.21 0.12 0.6 0.35 0.86 0.49 0.26 0.15 0.65 0.35 0.85 0.46 0.2 0.1 0.59 0.29 0.85 0.42 0.27 0.13 0.64 0.3 0.81 0.38 0.18 0.08 0.43 0.19 0.57 0.25s0.42 0.17 0.63 0.26c0.2 0.08 0.61 0.23 0.9 0.34s0.78 0.28 1.1 0.39c0.32 0.1 0.8 0.25 1.07 0.34 0.26 0.08 0.68 0.2 0.93 0.27 0.24 0.06 0.64 0.17 0.88 0.23s0.66 0.16 0.92 0.22 0.72 0.16 1.01 0.22c0.3 0.06 0.78 0.15 1.08 0.21 0.3 0.05 0.68 0.12 0.85 0.14 0.17 0.03 0.45 0.08 0.62 0.1 0.18 0.03 0.61 0.09 0.97 0.14 0.36 0.04 0.8 0.1 0.98 0.12s0.55 0.06 0.81 0.09c0.26 0.02 0.75 0.07 1.09 0.1 0.33 0.02 0.88 0.06 1.2 0.08s0.81 0.05 1.09 0.06c0.28 0.02 0.98 0.04 1.57 0.05 0.65 0.02 1.59 0.03 2.41 0.02 0.74-0.01 1.62-0.03 1.96-0.04s0.83-0.04 1.09-0.05c0.26-0.02 0.79-0.05 1.18-0.08 0.38-0.02 0.99-0.07 1.36-0.11 0.36-0.03 0.9-0.09 1.2-0.12 0.29-0.03 0.78-0.09 1.07-0.13 0.3-0.04 0.8-0.12 1.11-0.16 0.31-0.05 0.89-0.15 1.29-0.22 0.41-0.08 1-0.19 1.32-0.26 0.31-0.07 0.78-0.17 1.04-0.23 0.25-0.06 0.69-0.17 0.98-0.25 0.28-0.07 0.75-0.2 1.05-0.29s0.73-0.22 0.95-0.29c0.23-0.08 0.62-0.2 0.86-0.29 0.24-0.08 0.68-0.24 0.97-0.34 0.28-0.11 0.71-0.28 0.96-0.38 0.24-0.1 0.66-0.28 0.92-0.4 0.27-0.11 0.84-0.39 1.28-0.61s0.98-0.5 1.2-0.62 0.59-0.33 0.82-0.47 0.6-0.37 0.83-0.52c0.22-0.14 0.57-0.38 0.78-0.52s0.57-0.4 0.8-0.58c0.24-0.17 0.62-0.47 0.85-0.66 0.24-0.18 0.61-0.5 0.83-0.69 0.23-0.2 0.61-0.55 0.84-0.77 0.24-0.23 0.62-0.6 0.84-0.84 0.23-0.23 0.52-0.54 0.65-0.69s0.4-0.47 0.6-0.7c0.2-0.24 0.47-0.57 0.61-0.75 0.13-0.18 0.38-0.5 0.54-0.72s0.43-0.62 0.61-0.88c0.17-0.27 0.42-0.65 0.54-0.85 0.13-0.2 0.36-0.58 0.51-0.84 0.15-0.27 0.39-0.7 0.53-0.97s0.37-0.73 0.5-1.01c0.14-0.29 0.3-0.63 0.36-0.76s0.17-0.38 0.24-0.56c0.08-0.17 0.22-0.52 0.31-0.76 0.1-0.24 0.21-0.53 0.25-0.63 0.04-0.11 0.16-0.44 0.27-0.74 0.1-0.3 0.27-0.79 0.36-1.09 0.1-0.3 0.24-0.77 0.31-1.03 0.08-0.26 0.22-0.8 0.32-1.19s0.23-0.94 0.29-1.22c0.07-0.28 0.17-0.79 0.24-1.12 0.06-0.33 0.16-0.86 0.21-1.18 0.06-0.33 0.13-0.78 0.17-1 0.03-0.22 0.1-0.71 0.14-1.08 0.05-0.37 0.12-0.93 0.15-1.24 0.03-0.32 0.08-0.85 0.11-1.17s0.07-0.85 0.09-1.16c0.02-0.32 0.04-0.8 0.06-1.08 0.01-0.28 0.03-0.84 0.05-1.26 0.01-0.42 0.02-1.36 0.02-2.1 0-0.73-0.01-1.67-0.02-2.09-0.02-0.42-0.04-0.99-0.05-1.28-0.02-0.28-0.05-0.76-0.07-1.07s-0.05-0.83-0.08-1.15c-0.03-0.33-0.08-0.85-0.11-1.17s-0.1-0.88-0.15-1.24c-0.04-0.37-0.11-0.86-0.15-1.08-0.03-0.23-0.1-0.67-0.16-1-0.05-0.32-0.16-0.91-0.24-1.31s-0.2-0.96-0.27-1.26c-0.06-0.3-0.19-0.8-0.27-1.11s-0.21-0.78-0.28-1.04c-0.08-0.26-0.21-0.7-0.3-0.99-0.09-0.28-0.23-0.73-0.33-1-0.09-0.27-0.25-0.69-0.34-0.94s-0.26-0.67-0.36-0.92c-0.11-0.26-0.27-0.63-0.36-0.83-0.08-0.2-0.25-0.56-0.37-0.81-0.11-0.24-0.3-0.63-0.42-0.85-0.11-0.22-0.32-0.6-0.45-0.85-0.14-0.24-0.34-0.58-0.45-0.77-0.1-0.18-0.32-0.53-0.47-0.77-0.16-0.24-0.4-0.61-0.55-0.83s-0.4-0.56-0.56-0.77c-0.15-0.21-0.44-0.59-0.65-0.85-0.2-0.25-0.54-0.65-0.74-0.88s-0.54-0.6-0.76-0.83-0.59-0.61-0.83-0.84-0.56-0.53-0.72-0.67c-0.15-0.14-0.47-0.41-0.7-0.6s-0.56-0.46-0.75-0.6c-0.18-0.15-0.5-0.39-0.71-0.54-0.2-0.15-0.63-0.45-0.95-0.66s-0.81-0.52-1.09-0.69-0.66-0.39-0.83-0.48c-0.17-0.1-0.52-0.29-0.78-0.42-0.25-0.14-0.68-0.35-0.97-0.49-0.28-0.13-0.71-0.33-0.95-0.44-0.25-0.11-0.74-0.31-1.09-0.45-0.36-0.14-0.93-0.36-1.27-0.48-0.34-0.13-0.9-0.31-1.23-0.42-0.34-0.11-0.85-0.26-1.14-0.34-0.28-0.08-0.75-0.21-1.04-0.28-0.29-0.08-0.77-0.2-1.06-0.26-0.3-0.07-0.89-0.2-1.33-0.28-0.43-0.09-1.08-0.21-1.44-0.27-0.37-0.06-0.89-0.14-1.16-0.18-0.28-0.04-0.78-0.11-1.11-0.15s-0.87-0.1-1.2-0.14c-0.33-0.03-0.87-0.08-1.2-0.11-0.33-0.02-0.86-0.06-1.19-0.09-0.32-0.02-0.83-0.04-1.12-0.06-0.3-0.01-0.93-0.03-1.41-0.05-0.48-0.01-1.41-0.02-2.06-0.02zm56.81 0.24c-2.02 0-4.51 0.6-7.46 1.8-5.26 2.12-7.89 5.03-7.89 8.72 0 0.83 0.46 2.62 1.39 5.39l19.77 48.54 1.11 2.35c0.64 1.66 1.94 3.32 3.87 4.98 1.94 1.57 4.2 2.35 6.78 2.35 1.66 0 3.18-0.32 4.56-0.97 1.48-0.73 2.63-1.52 3.46-2.35 0.83-0.82 1.57-1.79 2.21-2.9 0.65-1.11 1.02-1.84 1.11-2.21 0.18-0.46 0.32-0.83 0.41-1.11 0.92-2.21 2.26-5.81 4.01-10.79 1.85-5.07 3.23-8.71 4.15-10.92 0.28 0.73 1.57 4.19 3.88 10.37 2.3 6.09 3.73 9.82 4.28 11.2l1.11 2.35c0.64 1.66 1.94 3.32 3.87 4.98 2.03 1.57 4.33 2.35 6.92 2.35 1.66 0 3.18-0.32 4.56-0.97 1.38-0.73 2.44-1.52 3.18-2.35 0.83-0.82 1.57-1.79 2.21-2.9 0.65-1.11 1.02-1.84 1.11-2.21 0.18-0.46 0.32-0.83 0.41-1.11l15.22-37.06c1.01-2.59 2.58-6.41 4.7-11.48 0.83-1.85 1.24-3.55 1.24-5.12 0-3.78-2.95-6.96-8.85-9.54-1.93-0.92-3.78-1.39-5.53-1.39-4.42 0-7.74 2.96-9.96 8.86l-8.43 22.95c-0.83-1.84-3.55-9.22-8.16-22.12l-1.11-2.36c-0.74-1.47-2.12-2.95-4.15-4.42-1.93-1.48-4.19-2.21-6.77-2.21-1.48 0-2.91 0.32-4.29 0.96-1.38 0.65-2.49 1.39-3.32 2.22-0.74 0.73-1.47 1.61-2.21 2.63-0.65 1.01-1.06 1.7-1.25 2.07-0.18 0.37-0.32 0.69-0.41 0.97l-8.16 22.4c-0.37-1.01-2.03-5.39-4.98-13.14-2.86-7.83-4.33-11.89-4.43-12.17-0.55-1.29-1.06-2.3-1.52-3.04-0.46-0.83-1.29-1.61-2.49-2.35-1.1-0.83-2.49-1.25-4.15-1.25zm130.34 0c-4.05 0-8.25 0.79-12.58 2.36-4.24 1.56-8.25 3.82-12.03 6.77-3.69 2.95-6.74 6.87-9.13 11.76-2.4 4.79-3.6 10.14-3.6 16.04 0 5.99 1.2 11.48 3.6 16.46 2.39 4.89 5.48 8.8 9.26 11.75s7.79 5.26 12.04 6.92c4.33 1.57 8.57 2.35 12.72 2.35 7.65 0 14.11-1.84 19.36-5.53 5.07-3.05 7.61-6.32 7.61-9.82 0-2.12-1.06-4.52-3.18-7.19-3.97-4.89-7.33-7.33-10.1-7.33-1.57 0-3.87 0.97-6.91 2.9l-0.83 0.55c-0.47 0.37-1.29 0.74-2.49 1.11s-2.54 0.55-4.01 0.55c-2.96 0-5.72-1.06-8.3-3.18-2.58-2.21-3.87-5.3-3.87-9.26 0-3.87 1.33-6.92 4.01-9.13 2.67-2.21 5.48-3.32 8.43-3.32 3.23 0 5.67 0.78 7.33 2.35 3.23 2.03 5.72 3.04 7.47 3.04 3.04 0 6.22-2.53 9.54-7.6 1.94-2.95 2.91-5.53 2.91-7.75 0-1.38-0.42-2.62-1.25-3.73-0.74-1.2-1.57-2.12-2.49-2.77-0.83-0.64-2.07-1.52-3.73-2.62l-2.21-1.39c-1.57-0.92-4.01-1.84-7.33-2.76-3.32-1.02-6.73-1.53-10.24-1.53zm48.49 0.7c-2.95 0-5.31 0.27-7.06 0.83-1.75 0.55-2.99 1.52-3.73 2.9-0.65 1.38-1.06 2.58-1.25 3.6-0.09 1.01-0.13 2.62-0.13 4.84v24.2c0 10.14 3.04 18.76 9.12 25.86 6.18 7.01 13.93 10.51 23.24 10.51 1.93 0 3.82-0.32 5.67-0.97 1.84-0.64 3.36-1.33 4.56-2.07 1.2-0.83 2.31-1.75 3.32-2.77 1.11-1.01 1.8-1.7 2.08-2.07 0.36-0.37 0.64-0.69 0.83-0.97 0 1.2 0.04 2.17 0.13 2.9 0.19 0.74 0.6 1.66 1.25 2.77 0.64 1.11 1.84 1.94 3.59 2.49 1.76 0.55 4.02 0.83 6.78 0.83 2.86 0 5.16-0.28 6.92-0.83 1.75-0.55 2.99-1.47 3.73-2.77 0.74-1.29 1.15-2.44 1.24-3.45 0.19-1.11 0.28-2.68 0.28-4.71v-48.95c0-2.12-0.09-3.69-0.28-4.71-0.09-1.1-0.5-2.35-1.24-3.73-0.65-1.38-1.84-2.35-3.6-2.9-1.75-0.56-4.05-0.83-6.91-0.83-2.95 0-5.3 0.27-7.05 0.83-1.76 0.55-3 1.52-3.74 2.9-0.64 1.29-1.06 2.49-1.24 3.6-0.1 1.01-0.14 2.58-0.14 4.7v24.48c0 3.59-1.15 6.5-3.46 8.71-2.21 2.21-5.12 3.32-8.71 3.32-3.69 0-6.64-1.06-8.85-3.18-2.12-2.12-3.18-5.07-3.18-8.85v-24.2c0-1.76-0.05-3.05-0.14-3.88 0-0.92-0.23-1.98-0.69-3.18-0.37-1.29-0.97-2.26-1.8-2.9-0.83-0.65-2.03-1.2-3.6-1.66-1.56-0.46-3.55-0.69-5.94-0.69zm-235.69 6.54c0.04 0 0.61 0 1.29 0.02 0.67 0.01 1.54 0.04 1.93 0.06s1 0.06 1.34 0.08c0.35 0.03 0.9 0.08 1.23 0.11 0.33 0.04 0.82 0.09 1.09 0.13 0.26 0.03 0.74 0.1 1.05 0.15 0.31 0.04 0.77 0.12 1.03 0.17 0.26 0.04 0.71 0.13 1 0.19 0.3 0.06 0.83 0.18 1.18 0.27s0.82 0.21 1.04 0.27 0.6 0.17 0.84 0.25c0.24 0.07 0.64 0.2 0.88 0.29 0.25 0.08 0.62 0.22 0.84 0.31 0.21 0.08 0.63 0.25 0.92 0.37s0.79 0.36 1.12 0.52 0.77 0.39 0.97 0.5 0.5 0.29 0.67 0.39 0.53 0.33 0.8 0.51c0.28 0.18 0.7 0.47 0.94 0.65s0.58 0.46 0.76 0.61c0.19 0.15 0.49 0.41 0.68 0.59 0.19 0.17 0.52 0.49 0.74 0.72 0.23 0.23 0.52 0.54 0.66 0.7 0.13 0.15 0.35 0.41 0.48 0.57s0.35 0.44 0.49 0.62c0.14 0.19 0.3 0.41 0.36 0.5 0.06 0.08 0.22 0.32 0.36 0.52 0.13 0.2 0.34 0.54 0.46 0.74s0.31 0.52 0.42 0.71c0.1 0.19 0.3 0.57 0.44 0.84 0.14 0.28 0.29 0.59 0.34 0.7s0.15 0.34 0.22 0.51c0.08 0.16 0.23 0.52 0.33 0.79 0.11 0.27 0.29 0.73 0.39 1.03 0.11 0.3 0.26 0.75 0.34 1.02 0.08 0.26 0.22 0.72 0.3 1.01 0.08 0.3 0.21 0.78 0.28 1.08s0.18 0.78 0.25 1.08c0.06 0.3 0.16 0.8 0.22 1.13 0.06 0.32 0.14 0.84 0.19 1.16s0.12 0.83 0.16 1.15 0.1 0.85 0.14 1.18c0.03 0.33 0.08 0.88 0.1 1.23 0.03 0.35 0.07 0.94 0.09 1.31 0.02 0.38 0.05 1.02 0.06 1.44 0.02 0.42 0.03 1.34 0.03 2.04 0 0.71-0.01 1.63-0.03 2.05-0.01 0.42-0.04 1.06-0.06 1.43s-0.05 0.9-0.07 1.17-0.07 0.78-0.1 1.13c-0.04 0.36-0.1 0.92-0.14 1.24s-0.11 0.85-0.16 1.18c-0.04 0.32-0.13 0.83-0.18 1.14-0.05 0.3-0.15 0.79-0.21 1.09-0.06 0.29-0.16 0.74-0.22 1s-0.17 0.7-0.24 0.98c-0.08 0.28-0.21 0.74-0.29 1.01s-0.22 0.7-0.3 0.96c-0.09 0.27-0.24 0.7-0.35 0.97-0.1 0.26-0.25 0.65-0.33 0.85-0.09 0.21-0.23 0.54-0.32 0.73-0.09 0.2-0.28 0.61-0.43 0.91s-0.35 0.69-0.45 0.86c-0.09 0.16-0.27 0.46-0.38 0.66-0.12 0.19-0.36 0.58-0.55 0.85-0.18 0.28-0.47 0.7-0.64 0.92-0.17 0.23-0.41 0.54-0.53 0.68-0.11 0.14-0.32 0.39-0.46 0.55-0.15 0.16-0.44 0.47-0.66 0.69-0.21 0.23-0.55 0.56-0.75 0.74-0.21 0.18-0.5 0.44-0.65 0.57-0.16 0.13-0.43 0.34-0.6 0.48-0.18 0.13-0.51 0.37-0.74 0.53s-0.6 0.41-0.84 0.56c-0.23 0.14-0.61 0.37-0.85 0.51-0.24 0.13-0.65 0.35-0.92 0.49-0.26 0.13-0.65 0.31-0.85 0.41l-0.77 0.33c-0.21 0.09-0.6 0.24-0.87 0.34-0.26 0.1-0.7 0.26-0.97 0.35s-0.74 0.23-1.03 0.32c-0.3 0.09-0.76 0.21-1.02 0.28s-0.67 0.17-0.92 0.22c-0.24 0.06-0.66 0.15-0.93 0.2s-0.71 0.14-0.98 0.18c-0.27 0.05-0.72 0.12-1 0.16s-0.73 0.1-1 0.13c-0.28 0.04-0.78 0.09-1.12 0.13-0.35 0.03-0.86 0.07-1.14 0.09-0.29 0.02-0.71 0.05-0.96 0.07-0.24 0.01-0.74 0.03-1.1 0.05-0.36 0.01-1.32 0.02-2.12 0.02s-1.76-0.01-2.12-0.03c-0.36-0.01-0.94-0.04-1.28-0.06-0.35-0.02-0.89-0.06-1.21-0.08-0.31-0.03-0.78-0.07-1.04-0.1-0.25-0.03-0.68-0.08-0.95-0.11-0.27-0.04-0.74-0.1-1.04-0.15-0.31-0.05-0.74-0.12-0.97-0.16s-0.63-0.12-0.89-0.17c-0.27-0.05-0.7-0.15-0.96-0.21s-0.7-0.17-0.98-0.24c-0.28-0.08-0.68-0.19-0.91-0.26-0.22-0.06-0.65-0.2-0.94-0.3-0.3-0.1-0.71-0.24-0.91-0.32-0.21-0.08-0.58-0.22-0.84-0.33-0.25-0.1-0.62-0.27-0.82-0.36s-0.6-0.28-0.88-0.43c-0.29-0.14-0.71-0.37-0.94-0.5-0.22-0.13-0.54-0.31-0.69-0.41-0.16-0.1-0.46-0.29-0.67-0.43-0.2-0.14-0.56-0.4-0.79-0.57s-0.52-0.39-0.65-0.5c-0.13-0.1-0.39-0.33-0.59-0.5-0.19-0.17-0.58-0.53-0.86-0.81-0.27-0.28-0.61-0.63-0.75-0.78-0.13-0.16-0.34-0.4-0.46-0.54s-0.38-0.48-0.58-0.75-0.51-0.71-0.69-0.98-0.41-0.64-0.52-0.82-0.28-0.48-0.38-0.66-0.3-0.56-0.43-0.83c-0.14-0.27-0.33-0.66-0.42-0.87-0.09-0.2-0.24-0.55-0.33-0.76s-0.24-0.6-0.35-0.88c-0.1-0.27-0.27-0.74-0.37-1.05-0.1-0.3-0.26-0.83-0.36-1.17-0.1-0.35-0.23-0.83-0.29-1.07s-0.16-0.66-0.22-0.93-0.16-0.71-0.21-0.99c-0.06-0.27-0.15-0.79-0.21-1.16-0.06-0.36-0.15-0.93-0.2-1.27-0.04-0.34-0.11-0.87-0.14-1.17-0.04-0.31-0.09-0.8-0.11-1.11-0.03-0.3-0.07-0.8-0.09-1.1s-0.05-0.75-0.06-1c-0.02-0.25-0.04-0.85-0.05-1.33-0.02-0.54-0.03-1.49-0.02-2.54 0.01-0.93 0.03-1.91 0.04-2.2 0.02-0.28 0.04-0.79 0.06-1.14 0.02-0.34 0.07-0.93 0.1-1.32 0.04-0.38 0.09-0.95 0.13-1.25 0.03-0.3 0.08-0.75 0.12-1 0.03-0.25 0.1-0.7 0.15-1.01 0.04-0.3 0.13-0.82 0.19-1.15s0.17-0.87 0.24-1.2c0.08-0.33 0.19-0.82 0.26-1.09s0.19-0.72 0.27-1c0.08-0.29 0.21-0.73 0.29-0.98 0.08-0.26 0.22-0.67 0.31-0.92s0.26-0.69 0.37-0.97 0.3-0.72 0.41-0.98 0.32-0.7 0.47-0.99c0.14-0.29 0.34-0.67 0.45-0.86 0.1-0.18 0.27-0.48 0.38-0.66s0.31-0.51 0.45-0.72c0.14-0.22 0.36-0.54 0.49-0.73 0.13-0.18 0.37-0.49 0.52-0.68 0.15-0.2 0.39-0.49 0.53-0.66 0.14-0.16 0.42-0.47 0.62-0.69 0.2-0.21 0.55-0.56 0.77-0.76 0.22-0.21 0.51-0.47 0.65-0.6 0.14-0.12 0.41-0.34 0.61-0.49 0.19-0.16 0.5-0.39 0.69-0.53 0.2-0.14 0.49-0.35 0.65-0.45 0.16-0.11 0.47-0.31 0.67-0.43 0.21-0.13 0.57-0.34 0.79-0.46 0.22-0.13 0.67-0.36 0.99-0.52 0.33-0.16 0.77-0.37 0.99-0.47 0.23-0.09 0.62-0.25 0.87-0.35 0.26-0.11 0.68-0.26 0.93-0.35 0.26-0.09 0.68-0.24 0.95-0.32 0.26-0.08 0.59-0.18 0.73-0.22s0.45-0.12 0.68-0.18c0.23-0.07 0.65-0.17 0.94-0.24 0.3-0.07 0.78-0.17 1.08-0.23s0.82-0.16 1.15-0.21c0.33-0.06 0.87-0.14 1.21-0.18 0.34-0.05 0.87-0.12 1.19-0.15s0.84-0.09 1.16-0.11c0.33-0.03 0.86-0.07 1.18-0.09s0.92-0.04 1.33-0.06c0.42-0.01 0.99-0.03 1.29-0.03s0.57-0.01 0.6-0.01zm0.09 15.49c-5.02-0.01-9.21 0-9.32 0.01s-0.33 0.04-0.48 0.07c-0.14 0.03-0.38 0.09-0.52 0.14s-0.35 0.13-0.47 0.19c-0.12 0.05-0.31 0.17-0.43 0.25-0.13 0.08-0.33 0.25-0.47 0.39s-0.3 0.32-0.36 0.42c-0.07 0.09-0.22 0.32-0.34 0.51s-0.27 0.45-0.34 0.59c-0.07 0.13-0.17 0.39-0.23 0.58-0.06 0.18-0.14 0.45-0.17 0.61l-0.05 0.28-0.01 10.52c-0.01 7.35 0 10.6 0.02 10.78 0.01 0.14 0.05 0.36 0.07 0.49 0.03 0.13 0.09 0.36 0.15 0.52 0.05 0.16 0.16 0.41 0.23 0.56s0.26 0.46 0.41 0.69 0.34 0.51 0.43 0.62c0.09 0.1 0.24 0.25 0.32 0.33 0.09 0.08 0.24 0.19 0.32 0.25 0.09 0.06 0.27 0.17 0.41 0.24s0.36 0.16 0.51 0.21c0.14 0.05 0.38 0.1 0.52 0.13 0.15 0.03 0.39 0.06 0.54 0.08 0.17 0.01 3.37 0.02 9.15 0.02 6 0 8.97-0.01 9.16-0.02 0.15-0.02 0.42-0.06 0.59-0.09 0.17-0.04 0.42-0.1 0.57-0.15s0.41-0.16 0.57-0.24c0.16-0.09 0.39-0.22 0.5-0.3s0.32-0.25 0.46-0.39c0.14-0.13 0.33-0.33 0.41-0.44 0.09-0.11 0.22-0.3 0.29-0.42 0.08-0.11 0.2-0.33 0.27-0.48s0.17-0.38 0.22-0.5c0.05-0.13 0.13-0.38 0.19-0.56 0.05-0.19 0.13-0.5 0.17-0.7 0.04-0.21 0.09-0.54 0.12-0.75s0.06-0.56 0.07-0.78c0.02-0.25 0.03-3.39 0.03-8.93s-0.01-8.67-0.03-8.93c-0.01-0.21-0.04-0.56-0.07-0.77s-0.08-0.53-0.11-0.7c-0.03-0.18-0.11-0.48-0.16-0.66-0.05-0.19-0.13-0.43-0.17-0.54-0.04-0.1-0.11-0.29-0.17-0.41-0.05-0.13-0.16-0.34-0.23-0.47-0.08-0.13-0.2-0.34-0.29-0.46-0.08-0.12-0.23-0.29-0.32-0.4-0.09-0.1-0.25-0.25-0.35-0.34-0.09-0.09-0.27-0.23-0.39-0.31s-0.33-0.2-0.46-0.26c-0.12-0.07-0.33-0.16-0.45-0.2s-0.32-0.1-0.45-0.13c-0.13-0.04-0.35-0.08-0.49-0.11l-0.26-0.04h-9.11z"
          filter="url(#a)" opacity=".3" stroke="#000" stroke-width="2" mix-blend-mode="multiply"/>
    <path d="m298.32 329.69c-9.59 0-16.92 2.9-21.99 8.71-5.07 5.72-7.61 12.12-7.61 19.22v7.33h-4.56c-5.44 0-8.16 3.78-8.16 11.34 0 2.49 0.18 4.57 0.55 6.23 0.37 1.56 0.97 2.76 1.8 3.59 0.83 0.74 1.61 1.25 2.35 1.52 0.83 0.19 1.85 0.33 3.04 0.42h4.98v36.65c0 2.12 0.05 3.73 0.14 4.84 0.19 1.11 0.65 2.35 1.38 3.73 0.74 1.29 1.94 2.26 3.6 2.91 1.75 0.55 4.06 0.83 6.92 0.83 2.85 0 5.16-0.28 6.91-0.83 1.84-0.56 3.09-1.48 3.73-2.77 0.74-1.38 1.2-2.63 1.39-3.73 0.18-1.11 0.27-2.68 0.27-4.71v-37.06l8.86 0.55c2.02 0 3.59-0.09 4.7-0.27 1.2-0.19 2.44-0.65 3.73-1.39 1.29-0.73 2.21-1.93 2.77-3.59 0.64-1.75 0.97-4.01 0.97-6.78 0-2.95-0.28-5.3-0.83-7.05-0.56-1.75-1.53-2.95-2.91-3.6-1.29-0.73-2.49-1.2-3.59-1.38-1.02-0.18-2.59-0.28-4.71-0.28l-8.99 0.83v-7.6c0-2.31 1.71-3.46 5.12-3.46h3.87c0.92-0.09 1.99-0.32 3.18-0.69 1.3-0.46 2.26-1.06 2.91-1.8 0.64-0.83 1.2-2.03 1.66-3.6 0.46-1.65 0.69-3.64 0.69-5.94 0-2.95-0.28-5.3-0.83-7.06-0.55-1.75-1.52-2.95-2.9-3.59-1.39-0.74-2.63-1.15-3.74-1.25-1.01-0.18-2.58-0.27-4.7-0.27zm35.43 0c-2.95 0-5.3 0.27-7.05 0.83-1.75 0.55-3 1.52-3.73 2.9-0.65 1.38-1.06 2.63-1.25 3.73-0.09 1.02-0.14 2.59-0.14 4.71v65.83c0 5.35 0.33 9.72 0.97 13.14 0.65 3.41 1.57 6.22 2.77 8.43 1.29 2.21 3.18 3.87 5.67 4.98 2.58 1.01 5.34 1.71 8.3 2.07 2.95 0.37 6.86 0.56 11.75 0.56 1.29 0 2.26-0.05 2.91-0.14 0.73-0.18 1.56-0.6 2.49-1.25 1.01-0.73 1.7-1.98 2.07-3.73 0.46-1.75 0.69-4.06 0.69-6.91 0-2.68-0.23-4.8-0.69-6.37-0.37-1.65-1.06-2.81-2.07-3.45-0.93-0.65-1.71-1.02-2.36-1.11-0.64-0.18-1.61-0.28-2.9-0.28-2.49 0-4.01-0.41-4.56-1.24-0.56-0.92-0.83-3.04-0.83-6.36v-64.03c0-2.12-0.1-3.74-0.28-4.85-0.09-1.1-0.51-2.3-1.25-3.59-0.73-1.38-1.98-2.35-3.73-2.91-1.66-0.64-3.92-0.96-6.78-0.96zm406.04 32.91c-20.01 0-30.01 7.29-30.01 21.85 0 4.89 0.87 9.13 2.62 12.73 1.76 3.5 3.97 6.08 6.64 7.74 2.68 1.66 5.53 3.09 8.58 4.29 3.13 1.11 6.04 1.84 8.71 2.21s4.89 0.88 6.64 1.52c1.75 0.65 2.63 1.43 2.63 2.35 0 2.22-2.82 3.32-8.44 3.32-3.13 0-6.96-1.29-11.48-3.87-3.23-1.94-6.04-2.9-8.44-2.9-2.12 0-3.68 0.78-4.7 2.35-3.5 4.88-5.25 8.66-5.25 11.34 0 2.12 0.87 3.73 2.62 4.84 8.21 5.16 16.97 7.74 26.28 7.74 4.33 0 8.16-0.32 11.48-0.97 3.41-0.64 6.73-1.75 9.96-3.31 3.32-1.66 5.85-4.15 7.6-7.47 1.85-3.41 2.77-7.61 2.77-12.59 0-4.61-0.92-8.48-2.77-11.61-1.75-3.23-4.01-5.49-6.77-6.78-2.68-1.38-5.58-2.54-8.72-3.46-3.13-0.92-6.08-1.52-8.85-1.8-2.67-0.37-4.93-0.96-6.77-1.79-1.75-0.93-2.63-2.12-2.63-3.6 0-2.03 2.72-3.04 8.16-3.04 3.5 0 7.24 0.92 11.2 2.76 2.03 0.93 3.6 1.39 4.7 1.39 2.12 0 4.24-1.66 6.36-4.98 1.94-3.14 2.91-5.63 2.91-7.47 0-2.58-1.61-4.61-4.84-6.09-6.92-3.13-13.65-4.7-20.19-4.7zm-337.63 0.31c-0.65 0.01-1.49 0.02-1.85 0.03s-0.93 0.03-1.25 0.04c-0.32 0.02-0.92 0.05-1.32 0.08-0.41 0.03-0.93 0.06-1.17 0.08-0.23 0.02-0.7 0.07-1.04 0.1-0.33 0.04-0.91 0.1-1.29 0.15-0.37 0.05-0.93 0.12-1.25 0.17-0.31 0.05-0.83 0.13-1.14 0.18-0.32 0.06-0.85 0.16-1.19 0.22-0.34 0.07-0.84 0.18-1.11 0.24-0.26 0.06-0.72 0.17-1.02 0.24-0.29 0.07-0.72 0.19-0.94 0.25-0.23 0.06-0.7 0.2-1.05 0.3-0.35 0.11-0.83 0.26-1.06 0.34-0.24 0.08-0.64 0.22-0.89 0.31s-0.69 0.26-0.99 0.38c-0.29 0.12-0.76 0.31-1.03 0.43s-0.72 0.32-1 0.46-0.75 0.37-1.03 0.51c-0.28 0.15-0.73 0.4-1 0.55-0.27 0.16-0.7 0.41-0.95 0.57-0.25 0.15-0.64 0.41-0.86 0.56-0.23 0.15-0.61 0.42-0.85 0.59-0.24 0.18-0.57 0.43-0.74 0.56s-0.43 0.34-0.59 0.47c-0.15 0.13-0.44 0.38-0.65 0.56-0.2 0.17-0.56 0.51-0.81 0.75-0.24 0.23-0.6 0.59-0.79 0.79-0.2 0.2-0.49 0.52-0.65 0.7s-0.44 0.5-0.61 0.71c-0.18 0.21-0.43 0.52-0.57 0.7-0.13 0.17-0.34 0.44-0.45 0.6-0.12 0.15-0.34 0.47-0.5 0.69-0.16 0.23-0.42 0.63-0.58 0.88s-0.4 0.64-0.53 0.87-0.35 0.6-0.48 0.84c-0.13 0.23-0.35 0.66-0.49 0.94s-0.35 0.73-0.47 0.98c-0.11 0.26-0.31 0.71-0.44 1.01-0.12 0.29-0.33 0.8-0.45 1.12-0.12 0.33-0.31 0.87-0.43 1.22-0.12 0.34-0.29 0.88-0.38 1.19s-0.21 0.72-0.27 0.91c-0.05 0.2-0.16 0.62-0.24 0.95-0.08 0.32-0.19 0.75-0.23 0.96-0.05 0.21-0.14 0.63-0.2 0.92-0.06 0.3-0.15 0.79-0.21 1.09-0.05 0.31-0.14 0.8-0.18 1.11-0.05 0.3-0.12 0.8-0.16 1.1-0.05 0.3-0.11 0.79-0.14 1.09-0.03 0.29-0.09 0.84-0.12 1.21s-0.08 0.91-0.1 1.19-0.05 0.83-0.07 1.22-0.05 1.06-0.06 1.49c-0.02 0.42-0.03 1.37-0.03 2.11 0 0.75 0.01 1.68 0.03 2.09 0.01 0.4 0.03 0.98 0.04 1.27 0.02 0.3 0.05 0.86 0.08 1.25 0.02 0.39 0.08 1.01 0.11 1.39 0.03 0.37 0.09 0.91 0.12 1.21 0.04 0.29 0.09 0.75 0.12 1 0.04 0.26 0.1 0.72 0.15 1.03s0.14 0.84 0.2 1.18c0.06 0.33 0.15 0.82 0.2 1.09 0.06 0.26 0.14 0.68 0.2 0.93s0.18 0.75 0.27 1.13c0.09 0.37 0.23 0.89 0.31 1.15 0.07 0.26 0.19 0.67 0.27 0.92 0.07 0.24 0.22 0.68 0.32 0.98 0.1 0.29 0.27 0.78 0.39 1.08 0.11 0.29 0.31 0.8 0.44 1.12 0.14 0.33 0.34 0.8 0.46 1.05 0.12 0.26 0.33 0.69 0.46 0.96 0.14 0.27 0.35 0.68 0.48 0.91 0.12 0.23 0.32 0.59 0.44 0.79 0.11 0.2 0.31 0.53 0.44 0.74s0.37 0.57 0.53 0.82c0.17 0.24 0.45 0.64 0.63 0.89s0.51 0.68 0.73 0.96c0.22 0.27 0.51 0.62 0.64 0.77s0.39 0.44 0.58 0.65 0.62 0.64 0.94 0.97c0.33 0.32 0.75 0.72 0.93 0.88s0.46 0.4 0.62 0.54c0.17 0.13 0.41 0.33 0.54 0.44 0.14 0.11 0.42 0.33 0.64 0.49s0.56 0.42 0.77 0.56c0.21 0.15 0.58 0.4 0.82 0.55 0.25 0.16 0.62 0.39 0.82 0.52 0.21 0.12 0.6 0.35 0.86 0.49 0.26 0.15 0.65 0.35 0.85 0.46 0.2 0.1 0.59 0.29 0.85 0.42 0.27 0.13 0.64 0.3 0.81 0.38 0.18 0.08 0.43 0.19 0.57 0.25s0.42 0.17 0.63 0.26c0.2 0.08 0.61 0.23 0.9 0.34s0.78 0.28 1.1 0.39c0.32 0.1 0.8 0.25 1.07 0.34 0.26 0.08 0.68 0.2 0.93 0.27 0.24 0.06 0.64 0.17 0.88 0.23s0.66 0.16 0.92 0.22 0.72 0.16 1.01 0.22c0.3 0.06 0.78 0.15 1.08 0.21 0.3 0.05 0.68 0.12 0.85 0.14 0.17 0.03 0.45 0.08 0.62 0.1 0.18 0.03 0.61 0.09 0.97 0.14 0.36 0.04 0.8 0.1 0.98 0.12s0.55 0.06 0.81 0.09c0.26 0.02 0.75 0.07 1.09 0.1 0.33 0.02 0.88 0.06 1.2 0.08s0.81 0.05 1.09 0.06c0.28 0.02 0.98 0.04 1.57 0.05 0.65 0.02 1.59 0.03 2.41 0.02 0.74-0.01 1.62-0.03 1.96-0.04s0.83-0.04 1.09-0.05c0.26-0.02 0.79-0.05 1.18-0.08 0.38-0.02 0.99-0.07 1.36-0.11 0.36-0.03 0.9-0.09 1.2-0.12 0.29-0.03 0.78-0.09 1.07-0.13 0.3-0.04 0.8-0.12 1.11-0.16 0.31-0.05 0.89-0.15 1.29-0.22 0.41-0.08 1-0.19 1.32-0.26 0.31-0.07 0.78-0.17 1.04-0.23 0.25-0.06 0.69-0.17 0.98-0.25 0.28-0.07 0.75-0.2 1.05-0.29s0.73-0.22 0.95-0.29c0.23-0.08 0.62-0.2 0.86-0.29 0.24-0.08 0.68-0.24 0.97-0.34 0.28-0.11 0.71-0.28 0.96-0.38 0.24-0.1 0.66-0.28 0.92-0.4 0.27-0.11 0.84-0.39 1.28-0.61s0.98-0.5 1.2-0.62 0.59-0.33 0.82-0.47 0.6-0.37 0.83-0.52c0.22-0.14 0.57-0.38 0.78-0.52s0.57-0.4 0.8-0.58c0.24-0.17 0.62-0.47 0.85-0.66 0.24-0.18 0.61-0.5 0.83-0.69 0.23-0.2 0.61-0.55 0.84-0.77 0.24-0.23 0.62-0.6 0.84-0.84 0.23-0.23 0.52-0.54 0.65-0.69s0.4-0.47 0.6-0.7c0.2-0.24 0.47-0.57 0.61-0.75 0.13-0.18 0.38-0.5 0.54-0.72s0.43-0.62 0.61-0.88c0.17-0.27 0.42-0.65 0.54-0.85 0.13-0.2 0.36-0.58 0.51-0.84 0.15-0.27 0.39-0.7 0.53-0.97s0.37-0.73 0.5-1.01c0.14-0.29 0.3-0.63 0.36-0.76s0.17-0.38 0.24-0.56c0.08-0.17 0.22-0.52 0.31-0.76 0.1-0.24 0.21-0.53 0.25-0.63 0.04-0.11 0.16-0.44 0.27-0.74 0.1-0.3 0.27-0.79 0.36-1.09 0.1-0.3 0.24-0.77 0.31-1.03 0.08-0.26 0.22-0.8 0.32-1.19s0.23-0.94 0.29-1.22c0.07-0.28 0.17-0.79 0.24-1.12 0.06-0.33 0.16-0.86 0.21-1.18 0.06-0.33 0.13-0.78 0.17-1 0.03-0.22 0.1-0.71 0.14-1.08 0.05-0.37 0.12-0.93 0.15-1.24 0.03-0.32 0.08-0.85 0.11-1.17s0.07-0.85 0.09-1.16c0.02-0.32 0.04-0.8 0.06-1.08 0.01-0.28 0.03-0.84 0.05-1.26 0.01-0.42 0.02-1.36 0.02-2.1 0-0.73-0.01-1.67-0.02-2.09-0.02-0.42-0.04-0.99-0.05-1.28-0.02-0.28-0.05-0.76-0.07-1.07s-0.05-0.83-0.08-1.15c-0.03-0.33-0.08-0.85-0.11-1.17s-0.1-0.88-0.15-1.24c-0.04-0.37-0.11-0.86-0.15-1.08-0.03-0.23-0.1-0.67-0.16-1-0.05-0.32-0.16-0.91-0.24-1.31s-0.2-0.96-0.27-1.26c-0.06-0.3-0.19-0.8-0.27-1.11s-0.21-0.78-0.28-1.04c-0.08-0.26-0.21-0.7-0.3-0.99-0.09-0.28-0.23-0.73-0.33-1-0.09-0.27-0.25-0.69-0.34-0.94s-0.26-0.67-0.36-0.92c-0.11-0.26-0.27-0.63-0.36-0.83-0.08-0.2-0.25-0.56-0.37-0.81-0.11-0.24-0.3-0.63-0.42-0.85-0.11-0.22-0.32-0.6-0.45-0.85-0.14-0.24-0.34-0.58-0.45-0.77-0.1-0.18-0.32-0.53-0.47-0.77-0.16-0.24-0.4-0.61-0.55-0.83s-0.4-0.56-0.56-0.77c-0.15-0.21-0.44-0.59-0.65-0.85-0.2-0.25-0.54-0.65-0.74-0.88s-0.54-0.6-0.76-0.83-0.59-0.61-0.83-0.84-0.56-0.53-0.72-0.67c-0.15-0.14-0.47-0.41-0.7-0.6s-0.56-0.46-0.75-0.6c-0.18-0.15-0.5-0.39-0.71-0.54-0.2-0.15-0.63-0.45-0.95-0.66s-0.81-0.52-1.09-0.69-0.66-0.39-0.83-0.48c-0.17-0.1-0.52-0.29-0.78-0.42-0.25-0.14-0.68-0.35-0.97-0.49-0.28-0.13-0.71-0.33-0.95-0.44-0.25-0.11-0.74-0.31-1.09-0.45-0.36-0.14-0.93-0.36-1.27-0.48-0.34-0.13-0.9-0.31-1.23-0.42-0.34-0.11-0.85-0.26-1.14-0.34-0.28-0.08-0.75-0.21-1.04-0.28-0.29-0.08-0.77-0.2-1.06-0.26-0.3-0.07-0.89-0.2-1.33-0.28-0.43-0.09-1.08-0.21-1.44-0.27-0.37-0.06-0.89-0.14-1.16-0.18-0.28-0.04-0.78-0.11-1.11-0.15s-0.87-0.1-1.2-0.14c-0.33-0.03-0.87-0.08-1.2-0.11-0.33-0.02-0.86-0.06-1.19-0.09-0.32-0.02-0.83-0.04-1.12-0.06-0.3-0.01-0.93-0.03-1.41-0.05-0.48-0.01-1.41-0.02-2.06-0.02zm56.81 0.24c-2.02 0-4.51 0.6-7.46 1.8-5.26 2.12-7.89 5.03-7.89 8.72 0 0.83 0.46 2.62 1.39 5.39l19.77 48.54 1.11 2.35c0.64 1.66 1.94 3.32 3.87 4.98 1.94 1.57 4.2 2.35 6.78 2.35 1.66 0 3.18-0.32 4.56-0.97 1.48-0.73 2.63-1.52 3.46-2.35 0.83-0.82 1.57-1.79 2.21-2.9 0.65-1.11 1.02-1.84 1.11-2.21 0.18-0.46 0.32-0.83 0.41-1.11 0.92-2.21 2.26-5.81 4.01-10.79 1.85-5.07 3.23-8.71 4.15-10.92 0.28 0.73 1.57 4.19 3.88 10.37 2.3 6.09 3.73 9.82 4.28 11.2l1.11 2.35c0.64 1.66 1.94 3.32 3.87 4.98 2.03 1.57 4.33 2.35 6.92 2.35 1.66 0 3.18-0.32 4.56-0.97 1.38-0.73 2.44-1.52 3.18-2.35 0.83-0.82 1.57-1.79 2.21-2.9 0.65-1.11 1.02-1.84 1.11-2.21 0.18-0.46 0.32-0.83 0.41-1.11l15.22-37.06c1.01-2.59 2.58-6.41 4.7-11.48 0.83-1.85 1.24-3.55 1.24-5.12 0-3.78-2.95-6.96-8.85-9.54-1.93-0.92-3.78-1.39-5.53-1.39-4.42 0-7.74 2.96-9.96 8.86l-8.43 22.95c-0.83-1.84-3.55-9.22-8.16-22.12l-1.11-2.36c-0.74-1.47-2.12-2.95-4.15-4.42-1.93-1.48-4.19-2.21-6.77-2.21-1.48 0-2.91 0.32-4.29 0.96-1.38 0.65-2.49 1.39-3.32 2.22-0.74 0.73-1.47 1.61-2.21 2.63-0.65 1.01-1.06 1.7-1.25 2.07-0.18 0.37-0.32 0.69-0.41 0.97l-8.16 22.4c-0.37-1.01-2.03-5.39-4.98-13.14-2.86-7.83-4.33-11.89-4.43-12.17-0.55-1.29-1.06-2.3-1.52-3.04-0.46-0.83-1.29-1.61-2.49-2.35-1.1-0.83-2.49-1.25-4.15-1.25zm130.34 0c-4.05 0-8.25 0.79-12.58 2.36-4.24 1.56-8.25 3.82-12.03 6.77-3.69 2.95-6.74 6.87-9.13 11.76-2.4 4.79-3.6 10.14-3.6 16.04 0 5.99 1.2 11.48 3.6 16.46 2.39 4.89 5.48 8.8 9.26 11.75s7.79 5.26 12.04 6.92c4.33 1.57 8.57 2.35 12.72 2.35 7.65 0 14.11-1.84 19.36-5.53 5.07-3.05 7.61-6.32 7.61-9.82 0-2.12-1.06-4.52-3.18-7.19-3.97-4.89-7.33-7.33-10.1-7.33-1.57 0-3.87 0.97-6.91 2.9l-0.83 0.55c-0.47 0.37-1.29 0.74-2.49 1.11s-2.54 0.55-4.01 0.55c-2.96 0-5.72-1.06-8.3-3.18-2.58-2.21-3.87-5.3-3.87-9.26 0-3.87 1.33-6.92 4.01-9.13 2.67-2.21 5.48-3.32 8.43-3.32 3.23 0 5.67 0.78 7.33 2.35 3.23 2.03 5.72 3.04 7.47 3.04 3.04 0 6.22-2.53 9.54-7.6 1.94-2.95 2.91-5.53 2.91-7.75 0-1.38-0.42-2.62-1.25-3.73-0.74-1.2-1.57-2.12-2.49-2.77-0.83-0.64-2.07-1.52-3.73-2.62l-2.21-1.39c-1.57-0.92-4.01-1.84-7.33-2.76-3.32-1.02-6.73-1.53-10.24-1.53zm48.49 0.7c-2.95 0-5.31 0.27-7.06 0.83-1.75 0.55-2.99 1.52-3.73 2.9-0.65 1.38-1.06 2.58-1.25 3.6-0.09 1.01-0.13 2.62-0.13 4.84v24.2c0 10.14 3.04 18.76 9.12 25.86 6.18 7.01 13.93 10.51 23.24 10.51 1.93 0 3.82-0.32 5.67-0.97 1.84-0.64 3.36-1.33 4.56-2.07 1.2-0.83 2.31-1.75 3.32-2.77 1.11-1.01 1.8-1.7 2.08-2.07 0.36-0.37 0.64-0.69 0.83-0.97 0 1.2 0.04 2.17 0.13 2.9 0.19 0.74 0.6 1.66 1.25 2.77 0.64 1.11 1.84 1.94 3.59 2.49 1.76 0.55 4.02 0.83 6.78 0.83 2.86 0 5.16-0.28 6.92-0.83 1.75-0.55 2.99-1.47 3.73-2.77 0.74-1.29 1.15-2.44 1.24-3.45 0.19-1.11 0.28-2.68 0.28-4.71v-48.95c0-2.12-0.09-3.69-0.28-4.71-0.09-1.1-0.5-2.35-1.24-3.73-0.65-1.38-1.84-2.35-3.6-2.9-1.75-0.56-4.05-0.83-6.91-0.83-2.95 0-5.3 0.27-7.05 0.83-1.76 0.55-3 1.52-3.74 2.9-0.64 1.29-1.06 2.49-1.24 3.6-0.1 1.01-0.14 2.58-0.14 4.7v24.48c0 3.59-1.15 6.5-3.46 8.71-2.21 2.21-5.12 3.32-8.71 3.32-3.69 0-6.64-1.06-8.85-3.18-2.12-2.12-3.18-5.07-3.18-8.85v-24.2c0-1.76-0.05-3.05-0.14-3.88 0-0.92-0.23-1.98-0.69-3.18-0.37-1.29-0.97-2.26-1.8-2.9-0.83-0.65-2.03-1.2-3.6-1.66-1.56-0.46-3.55-0.69-5.94-0.69zm-235.69 6.54c0.04 0 0.61 0 1.29 0.02 0.67 0.01 1.54 0.04 1.93 0.06s1 0.06 1.34 0.08c0.35 0.03 0.9 0.08 1.23 0.11 0.33 0.04 0.82 0.09 1.09 0.13 0.26 0.03 0.74 0.1 1.05 0.15 0.31 0.04 0.77 0.12 1.03 0.17 0.26 0.04 0.71 0.13 1 0.19 0.3 0.06 0.83 0.18 1.18 0.27s0.82 0.21 1.04 0.27 0.6 0.17 0.84 0.25c0.24 0.07 0.64 0.2 0.88 0.29 0.25 0.08 0.62 0.22 0.84 0.31 0.21 0.08 0.63 0.25 0.92 0.37s0.79 0.36 1.12 0.52 0.77 0.39 0.97 0.5 0.5 0.29 0.67 0.39 0.53 0.33 0.8 0.51c0.28 0.18 0.7 0.47 0.94 0.65s0.58 0.46 0.76 0.61c0.19 0.15 0.49 0.41 0.68 0.59 0.19 0.17 0.52 0.49 0.74 0.72 0.23 0.23 0.52 0.54 0.66 0.7 0.13 0.15 0.35 0.41 0.48 0.57s0.35 0.44 0.49 0.62c0.14 0.19 0.3 0.41 0.36 0.5 0.06 0.08 0.22 0.32 0.36 0.52 0.13 0.2 0.34 0.54 0.46 0.74s0.31 0.52 0.42 0.71c0.1 0.19 0.3 0.57 0.44 0.84 0.14 0.28 0.29 0.59 0.34 0.7s0.15 0.34 0.22 0.51c0.08 0.16 0.23 0.52 0.33 0.79 0.11 0.27 0.29 0.73 0.39 1.03 0.11 0.3 0.26 0.75 0.34 1.02 0.08 0.26 0.22 0.72 0.3 1.01 0.08 0.3 0.21 0.78 0.28 1.08s0.18 0.78 0.25 1.08c0.06 0.3 0.16 0.8 0.22 1.13 0.06 0.32 0.14 0.84 0.19 1.16s0.12 0.83 0.16 1.15 0.1 0.85 0.14 1.18c0.03 0.33 0.08 0.88 0.1 1.23 0.03 0.35 0.07 0.94 0.09 1.31 0.02 0.38 0.05 1.02 0.06 1.44 0.02 0.42 0.03 1.34 0.03 2.04 0 0.71-0.01 1.63-0.03 2.05-0.01 0.42-0.04 1.06-0.06 1.43s-0.05 0.9-0.07 1.17-0.07 0.78-0.1 1.13c-0.04 0.36-0.1 0.92-0.14 1.24s-0.11 0.85-0.16 1.18c-0.04 0.32-0.13 0.83-0.18 1.14-0.05 0.3-0.15 0.79-0.21 1.09-0.06 0.29-0.16 0.74-0.22 1s-0.17 0.7-0.24 0.98c-0.08 0.28-0.21 0.74-0.29 1.01s-0.22 0.7-0.3 0.96c-0.09 0.27-0.24 0.7-0.35 0.97-0.1 0.26-0.25 0.65-0.33 0.85-0.09 0.21-0.23 0.54-0.32 0.73-0.09 0.2-0.28 0.61-0.43 0.91s-0.35 0.69-0.45 0.86c-0.09 0.16-0.27 0.46-0.38 0.66-0.12 0.19-0.36 0.58-0.55 0.85-0.18 0.28-0.47 0.7-0.64 0.92-0.17 0.23-0.41 0.54-0.53 0.68-0.11 0.14-0.32 0.39-0.46 0.55-0.15 0.16-0.44 0.47-0.66 0.69-0.21 0.23-0.55 0.56-0.75 0.74-0.21 0.18-0.5 0.44-0.65 0.57-0.16 0.13-0.43 0.34-0.6 0.48-0.18 0.13-0.51 0.37-0.74 0.53s-0.6 0.41-0.84 0.56c-0.23 0.14-0.61 0.37-0.85 0.51-0.24 0.13-0.65 0.35-0.92 0.49-0.26 0.13-0.65 0.31-0.85 0.41l-0.77 0.33c-0.21 0.09-0.6 0.24-0.87 0.34-0.26 0.1-0.7 0.26-0.97 0.35s-0.74 0.23-1.03 0.32c-0.3 0.09-0.76 0.21-1.02 0.28s-0.67 0.17-0.92 0.22c-0.24 0.06-0.66 0.15-0.93 0.2s-0.71 0.14-0.98 0.18c-0.27 0.05-0.72 0.12-1 0.16s-0.73 0.1-1 0.13c-0.28 0.04-0.78 0.09-1.12 0.13-0.35 0.03-0.86 0.07-1.14 0.09-0.29 0.02-0.71 0.05-0.96 0.07-0.24 0.01-0.74 0.03-1.1 0.05-0.36 0.01-1.32 0.02-2.12 0.02s-1.76-0.01-2.12-0.03c-0.36-0.01-0.94-0.04-1.28-0.06-0.35-0.02-0.89-0.06-1.21-0.08-0.31-0.03-0.78-0.07-1.04-0.1-0.25-0.03-0.68-0.08-0.95-0.11-0.27-0.04-0.74-0.1-1.04-0.15-0.31-0.05-0.74-0.12-0.97-0.16s-0.63-0.12-0.89-0.17c-0.27-0.05-0.7-0.15-0.96-0.21s-0.7-0.17-0.98-0.24c-0.28-0.08-0.68-0.19-0.91-0.26-0.22-0.06-0.65-0.2-0.94-0.3-0.3-0.1-0.71-0.24-0.91-0.32-0.21-0.08-0.58-0.22-0.84-0.33-0.25-0.1-0.62-0.27-0.82-0.36s-0.6-0.28-0.88-0.43c-0.29-0.14-0.71-0.37-0.94-0.5-0.22-0.13-0.54-0.31-0.69-0.41-0.16-0.1-0.46-0.29-0.67-0.43-0.2-0.14-0.56-0.4-0.79-0.57s-0.52-0.39-0.65-0.5c-0.13-0.1-0.39-0.33-0.59-0.5-0.19-0.17-0.58-0.53-0.86-0.81-0.27-0.28-0.61-0.63-0.75-0.78-0.13-0.16-0.34-0.4-0.46-0.54s-0.38-0.48-0.58-0.75-0.51-0.71-0.69-0.98-0.41-0.64-0.52-0.82-0.28-0.48-0.38-0.66-0.3-0.56-0.43-0.83c-0.14-0.27-0.33-0.66-0.42-0.87-0.09-0.2-0.24-0.55-0.33-0.76s-0.24-0.6-0.35-0.88c-0.1-0.27-0.27-0.74-0.37-1.05-0.1-0.3-0.26-0.83-0.36-1.17-0.1-0.35-0.23-0.83-0.29-1.07s-0.16-0.66-0.22-0.93-0.16-0.71-0.21-0.99c-0.06-0.27-0.15-0.79-0.21-1.16-0.06-0.36-0.15-0.93-0.2-1.27-0.04-0.34-0.11-0.87-0.14-1.17-0.04-0.31-0.09-0.8-0.11-1.11-0.03-0.3-0.07-0.8-0.09-1.1s-0.05-0.75-0.06-1c-0.02-0.25-0.04-0.85-0.05-1.33-0.02-0.54-0.03-1.49-0.02-2.54 0.01-0.93 0.03-1.91 0.04-2.2 0.02-0.28 0.04-0.79 0.06-1.14 0.02-0.34 0.07-0.93 0.1-1.32 0.04-0.38 0.09-0.95 0.13-1.25 0.03-0.3 0.08-0.75 0.12-1 0.03-0.25 0.1-0.7 0.15-1.01 0.04-0.3 0.13-0.82 0.19-1.15s0.17-0.87 0.24-1.2c0.08-0.33 0.19-0.82 0.26-1.09s0.19-0.72 0.27-1c0.08-0.29 0.21-0.73 0.29-0.98 0.08-0.26 0.22-0.67 0.31-0.92s0.26-0.69 0.37-0.97 0.3-0.72 0.41-0.98 0.32-0.7 0.47-0.99c0.14-0.29 0.34-0.67 0.45-0.86 0.1-0.18 0.27-0.48 0.38-0.66s0.31-0.51 0.45-0.72c0.14-0.22 0.36-0.54 0.49-0.73 0.13-0.18 0.37-0.49 0.52-0.68 0.15-0.2 0.39-0.49 0.53-0.66 0.14-0.16 0.42-0.47 0.62-0.69 0.2-0.21 0.55-0.56 0.77-0.76 0.22-0.21 0.51-0.47 0.65-0.6 0.14-0.12 0.41-0.34 0.61-0.49 0.19-0.16 0.5-0.39 0.69-0.53 0.2-0.14 0.49-0.35 0.65-0.45 0.16-0.11 0.47-0.31 0.67-0.43 0.21-0.13 0.57-0.34 0.79-0.46 0.22-0.13 0.67-0.36 0.99-0.52 0.33-0.16 0.77-0.37 0.99-0.47 0.23-0.09 0.62-0.25 0.87-0.35 0.26-0.11 0.68-0.26 0.93-0.35 0.26-0.09 0.68-0.24 0.95-0.32 0.26-0.08 0.59-0.18 0.73-0.22s0.45-0.12 0.68-0.18c0.23-0.07 0.65-0.17 0.94-0.24 0.3-0.07 0.78-0.17 1.08-0.23s0.82-0.16 1.15-0.21c0.33-0.06 0.87-0.14 1.21-0.18 0.34-0.05 0.87-0.12 1.19-0.15s0.84-0.09 1.16-0.11c0.33-0.03 0.86-0.07 1.18-0.09s0.92-0.04 1.33-0.06c0.42-0.01 0.99-0.03 1.29-0.03s0.57-0.01 0.6-0.01zm0.09 15.49c-5.02-0.01-9.21 0-9.32 0.01s-0.33 0.04-0.48 0.07c-0.14 0.03-0.38 0.09-0.52 0.14s-0.35 0.13-0.47 0.19c-0.12 0.05-0.31 0.17-0.43 0.25-0.13 0.08-0.33 0.25-0.47 0.39s-0.3 0.32-0.36 0.42c-0.07 0.09-0.22 0.32-0.34 0.51s-0.27 0.45-0.34 0.59c-0.07 0.13-0.17 0.39-0.23 0.58-0.06 0.18-0.14 0.45-0.17 0.61l-0.05 0.28-0.01 10.52c-0.01 7.35 0 10.6 0.02 10.78 0.01 0.14 0.05 0.36 0.07 0.49 0.03 0.13 0.09 0.36 0.15 0.52 0.05 0.16 0.16 0.41 0.23 0.56s0.26 0.46 0.41 0.69 0.34 0.51 0.43 0.62c0.09 0.1 0.24 0.25 0.32 0.33 0.09 0.08 0.24 0.19 0.32 0.25 0.09 0.06 0.27 0.17 0.41 0.24s0.36 0.16 0.51 0.21c0.14 0.05 0.38 0.1 0.52 0.13 0.15 0.03 0.39 0.06 0.54 0.08 0.17 0.01 3.37 0.02 9.15 0.02 6 0 8.97-0.01 9.16-0.02 0.15-0.02 0.42-0.06 0.59-0.09 0.17-0.04 0.42-0.1 0.57-0.15s0.41-0.16 0.57-0.24c0.16-0.09 0.39-0.22 0.5-0.3s0.32-0.25 0.46-0.39c0.14-0.13 0.33-0.33 0.41-0.44 0.09-0.11 0.22-0.3 0.29-0.42 0.08-0.11 0.2-0.33 0.27-0.48s0.17-0.38 0.22-0.5c0.05-0.13 0.13-0.38 0.19-0.56 0.05-0.19 0.13-0.5 0.17-0.7 0.04-0.21 0.09-0.54 0.12-0.75s0.06-0.56 0.07-0.78c0.02-0.25 0.03-3.39 0.03-8.93s-0.01-8.67-0.03-8.93c-0.01-0.21-0.04-0.56-0.07-0.77s-0.08-0.53-0.11-0.7c-0.03-0.18-0.11-0.48-0.16-0.66-0.05-0.19-0.13-0.43-0.17-0.54-0.04-0.1-0.11-0.29-0.17-0.41-0.05-0.13-0.16-0.34-0.23-0.47-0.08-0.13-0.2-0.34-0.29-0.46-0.08-0.12-0.23-0.29-0.32-0.4-0.09-0.1-0.25-0.25-0.35-0.34-0.09-0.09-0.27-0.23-0.39-0.31s-0.33-0.2-0.46-0.26c-0.12-0.07-0.33-0.16-0.45-0.2s-0.32-0.1-0.45-0.13c-0.13-0.04-0.35-0.08-0.49-0.11l-0.26-0.04h-9.11z"
          fill="#fff" filter="url(#d)"/>
</svg>